Titillium Math Sans Pro Zanichelli-Thin Italic.ufo
<glyph name="uni013B" format="2">
  <advance width="445"/>
  <unicode hex="013B"/>
  <note>
uni013B
</note>
  <outline>
    <contour>
      <point x="223" y="700" type="line"/>
      <point x="188" y="700" type="line"/>
      <point x="39" y="0" type="line"/>
      <point x="385" y="0" type="line"/>
      <point x="392" y="34" type="line"/>
      <point x="81" y="34" type="line"/>
    </contour>
    <contour>
      <point x="202" y="-99" type="line"/>
      <point x="119" y="-236" type="line"/>
      <point x="140" y="-251" type="line"/>
      <point x="231" y="-121" type="line"/>
    </contour>
  </outline>
</glyph>
<glyph name="uni0157" format="2">
  <advance width="313"/>
  <unicode hex="0157"/>
  <note>
uni0157
</note>
  <outline>
    <contour>
      <point x="147" y="404" type="curve"/>
      <point x="167" y="500" type="line"/>
      <point x="134" y="500" type="line"/>
      <point x="27" y="0" type="line"/>
      <point x="62" y="0" type="line"/>
      <point x="141" y="369" type="line"/>
      <point x="141" y="369"/>
      <point x="249" y="454"/>
      <point x="351" y="472" type="curve"/>
      <point x="359" y="510" type="line"/>
      <point x="245" y="489"/>
      <point x="147" y="404"/>
    </contour>
    <contour>
      <point x="34" y="-99" type="line"/>
      <point x="-49" y="-236" type="line"/>
      <point x="-28" y="-251" type="line"/>
      <point x="63" y="-121" type="line"/>
    </contour>
  </outline>
</glyph>
<glyph name="uni0197" format="2">
  <advance width="258"/>
  <unicode hex="0197"/>
  <note>
uni0197
</note>
  <outline>
    <contour>
      <point x="207" y="700" type="line"/>
      <point x="137" y="370" type="line"/>
      <point x="37" y="370" type="line"/>
      <point x="29" y="336" type="line"/>
      <point x="130" y="336" type="line"/>
      <point x="58" y="0" type="line"/>
      <point x="93" y="0" type="line"/>
      <point x="165" y="336" type="line"/>
      <point x="265" y="336" type="line"/>
      <point x="273" y="370" type="line"/>
      <point x="172" y="370" type="line"/>
      <point x="242" y="700" type="line"/>
    </contour>
  </outline>
</glyph>
<glyph name="uni01CF" format="2">
  <advance width="219"/>
  <unicode hex="01CF"/>
  <note>
uni01CF
</note>
  <outline>
    <contour>
      <point x="386" y="908" type="line"/>
      <point x="339" y="908" type="line"/>
      <point x="228" y="823" type="line"/>
      <point x="153" y="908" type="line"/>
      <point x="114" y="908" type="line"/>
      <point x="209" y="793" type="line"/>
      <point x="243" y="793" type="line"/>
    </contour>
    <contour>
      <point x="188" y="700" type="line"/>
      <point x="39" y="0" type="line"/>
      <point x="74" y="0" type="line"/>
      <point x="223" y="700" type="line"/>
    </contour>
  </outline>
</glyph>
<glyph name="uni0232" format="2">
  <advance width="521"/>
  <unicode hex="0232"/>
  <note>
uni0232
</note>
  <outline>
    <contour>
      <point x="515" y="822" type="line"/>
      <point x="521" y="854" type="line"/>
      <point x="254" y="854" type="line"/>
      <point x="248" y="822" type="line"/>
    </contour>
    <contour>
      <point x="159" y="700" type="line"/>
      <point x="123" y="700" type="line"/>
      <point x="253" y="301" type="line"/>
      <point x="189" y="0" type="line"/>
      <point x="224" y="0" type="line"/>
      <point x="287" y="297" type="line"/>
      <point x="594" y="700" type="line"/>
      <point x="553" y="700" type="line"/>
      <point x="275" y="334" type="line"/>
    </contour>
  </outline>
</glyph>
<glyph name="uni0237" format="2">
  <advance width="195"/>
  <unicode hex="0237"/>
  <note>
uni0237
</note>
  <outline>
    <contour>
      <point x="52" y="-47" type="curve" smooth="yes"/>
      <point x="169" y="500" type="line"/>
      <point x="134" y="500" type="line"/>
      <point x="17" y="-46" type="line" smooth="yes"/>
      <point x="-5" y="-150"/>
      <point x="-28" y="-147"/>
      <point x="-155" y="-211" type="curve"/>
      <point x="-144" y="-240" type="line"/>
      <point x="7" y="-170"/>
      <point x="28" y="-159"/>
    </contour>
  </outline>
</glyph>
<glyph name="uni0302" format="2">
  <advance width="0"/>
  <unicode hex="0302"/>
  <note>
uni0302
</note>
  <outline>
    <contour>
      <point x="77" y="613" type="line"/>
      <point x="125" y="613" type="line"/>
      <point x="236" y="698" type="line"/>
      <point x="311" y="613" type="line"/>
      <point x="349" y="613" type="line"/>
      <point x="254" y="728" type="line"/>
      <point x="220" y="728" type="line"/>
    </contour>
  </outline>
</glyph>
<glyph name="uni0304" format="2">
  <advance width="0"/>
  <unicode hex="0304"/>
  <note>
uni0304
</note>
  <outline>
    <contour>
      <point x="351" y="642" type="line"/>
      <point x="357" y="674" type="line"/>
      <point x="90" y="674" type="line"/>
      <point x="84" y="642" type="line"/>
    </contour>
  </outline>
</glyph>
<glyph name="uni0307" format="2">
  <advance width="0"/>
  <unicode hex="0307"/>
  <note>
uni0307
</note>
  <outline>
    <contour>
      <point x="172" y="642" type="line"/>
      <point x="184" y="703" type="line"/>
      <point x="146" y="703" type="line"/>
      <point x="134" y="642" type="line"/>
    </contour>
  </outline>
</glyph>
<glyph name="uni0308" format="2">
  <advance width="0"/>
  <unicode hex="0308"/>
  <note>
uni0308
</note>
  <outline>
    <contour>
      <point x="122" y="642" type="line"/>
      <point x="134" y="700" type="line"/>
      <point x="96" y="700" type="line"/>
      <point x="84" y="642" type="line"/>
    </contour>
    <contour>
      <point x="283" y="700" type="line"/>
      <point x="271" y="642" type="line"/>
      <point x="309" y="642" type="line"/>
      <point x="321" y="700" type="line"/>
    </contour>
  </outline>
</glyph>
<glyph name="uni0312" format="2">
  <advance width="0"/>
  <unicode hex="0312"/>
  <note>
uni0312
</note>
  <outline>
    <contour>
      <point x="189" y="732" type="line"/>
      <point x="81" y="630" type="line"/>
      <point x="104" y="609" type="line"/>
      <point x="205" y="717" type="line"/>
    </contour>
  </outline>
</glyph>
<glyph name="uni0313" format="2">
  <advance width="0"/>
  <unicode hex="0313"/>
  <note>
uni0313
</note>
  <outline>
    <contour>
      <point x="95" y="609" type="line"/>
      <point x="203" y="711" type="line"/>
      <point x="180" y="732" type="line"/>
      <point x="79" y="624" type="line"/>
    </contour>
  </outline>
</glyph>
<glyph name="uni0326" format="2">
  <advance width="0"/>
  <unicode hex="0326"/>
  <note>
uni0326
</note>
  <outline>
    <contour>
      <point x="-82" y="-251" type="line"/>
      <point x="9" y="-121" type="line"/>
      <point x="-20" y="-99" type="line"/>
      <point x="-103" y="-236" type="line"/>
    </contour>
  </outline>
</glyph>
<glyph name="uni0331" format="2">
  <advance width="0"/>
  <unicode hex="0331"/>
  <note>
uni0331
</note>
  <outline>
    <contour>
      <point x="186" y="-136" type="line"/>
      <point x="192" y="-104" type="line"/>
      <point x="-75" y="-104" type="line"/>
      <point x="-81" y="-136" type="line"/>
    </contour>
  </outline>
</glyph>
<glyph name="uni0335" format="2">
  <advance width="0"/>
  <unicode hex="0335"/>
  <note>
uni0335
</note>
  <outline>
    <contour>
      <point x="401" y="598" type="line"/>
      <point x="407" y="630" type="line"/>
      <point x="81" y="630" type="line"/>
      <point x="75" y="598" type="line"/>
    </contour>
  </outline>
</glyph>
<glyph name="uni0338" format="2">
  <advance width="0"/>
  <unicode hex="0338"/>
  <note>
uni0338
</note>
  <outline>
    <contour>
      <point x="-55" y="-34" type="line"/>
      <point x="495" y="741" type="line"/>
      <point x="469" y="755" type="line"/>
      <point x="-81" y="-20" type="line"/>
    </contour>
  </outline>
</glyph>
<glyph name="uni1E3A" format="2">
  <advance width="445"/>
  <unicode hex="1E3A"/>
  <note>
uni1E3A
</note>
  <outline>
    <contour>
      <point x="223" y="700" type="line"/>
      <point x="188" y="700" type="line"/>
      <point x="39" y="0" type="line"/>
      <point x="385" y="0" type="line"/>
      <point x="392" y="34" type="line"/>
      <point x="81" y="34" type="line"/>
    </contour>
    <contour>
      <point x="68" y="-104" type="line"/>
      <point x="62" y="-136" type="line"/>
      <point x="329" y="-136" type="line"/>
      <point x="335" y="-104" type="line"/>
    </contour>
  </outline>
</glyph>
<glyph name="uni1ECA" format="2">
  <advance width="219"/>
  <unicode hex="1ECA"/>
  <note>
uni1ECA
</note>
  <outline>
    <contour>
      <point x="74" y="0" type="line"/>
      <point x="223" y="700" type="line"/>
      <point x="188" y="700" type="line"/>
      <point x="39" y="0" type="line"/>
    </contour>
    <contour>
      <point x="19" y="-104" type="line"/>
      <point x="7" y="-165" type="line"/>
      <point x="49" y="-165" type="line"/>
      <point x="61" y="-104" type="line"/>
    </contour>
  </outline>
</glyph>
<glyph name="minute" format="2">
  <advance width="214"/>
  <unicode hex="2032"/>
  <note>
minute
</note>
  <outline>
    <contour>
      <point x="140" y="450" type="line"/>
      <point x="233" y="660" type="line"/>
      <point x="191" y="660" type="line"/>
      <point x="108" y="450" type="line"/>
    </contour>
  </outline>
</glyph>
<glyph name="uni2087" format="2">
  <advance width="228"/>
  <unicode hex="2087"/>
  <note>
uni2087
</note>
  <outline>
    <contour>
      <point x="181" y="136" type="line"/>
      <point x="192" y="187" type="line"/>
      <point x="0" y="187" type="line"/>
      <point x="-7" y="153" type="line"/>
      <point x="149" y="153" type="line"/>
      <point x="146" y="138" type="line"/>
      <point x="-19" y="-124" type="line"/>
      <point x="11" y="-138" type="line"/>
    </contour>
  </outline>
</glyph>
<glyph name="uni2116" format="2">
  <advance width="928"/>
  <unicode hex="2116"/>
  <note>
uni2116
</note>
  <outline>
    <contour>
      <point x="429" y="34" type="line"/>
      <point x="273" y="700" type="line"/>
      <point x="188" y="700" type="line"/>
      <point x="40" y="0" type="line"/>
      <point x="75" y="0" type="line"/>
      <point x="216" y="666" type="line"/>
      <point x="246" y="666" type="line"/>
      <point x="402" y="0" type="line"/>
      <point x="487" y="0" type="line"/>
      <point x="637" y="700" type="line"/>
      <point x="602" y="700" type="line"/>
      <point x="459" y="34" type="line"/>
    </contour>
    <contour>
      <point x="663" y="371" type="line"/>
      <point x="657" y="341" type="line"/>
      <point x="865" y="341" type="line"/>
      <point x="871" y="371" type="line"/>
    </contour>
    <contour>
      <point x="686" y="527" type="curve" smooth="yes"/>
      <point x="686" y="469"/>
      <point x="722" y="437"/>
      <point x="782" y="437" type="curve" smooth="yes"/>
      <point x="903" y="437"/>
      <point x="926" y="558"/>
      <point x="926" y="622" type="curve" smooth="yes"/>
      <point x="926" y="680"/>
      <point x="893" y="710"/>
      <point x="833" y="710" type="curve" smooth="yes"/>
      <point x="710" y="710"/>
      <point x="686" y="590"/>
    </contour>
    <contour>
      <point x="720" y="528" type="curve" smooth="yes"/>
      <point x="720" y="568"/>
      <point x="732" y="678"/>
      <point x="828" y="678" type="curve" smooth="yes"/>
      <point x="872" y="678"/>
      <point x="892" y="662"/>
      <point x="892" y="621" type="curve" smooth="yes"/>
      <point x="892" y="575"/>
      <point x="876" y="469"/>
      <point x="784" y="469" type="curve" smooth="yes"/>
      <point x="741" y="469"/>
      <point x="720" y="486"/>
    </contour>
  </outline>
</glyph>
<glyph name="uni2150" format="2">
  <advance width="567"/>
  <unicode hex="2150"/>
  <note>
uni2150
</note>
  <outline>
    <contour>
      <point x="17" y="-12" type="line"/>
      <point x="596" y="690" type="line"/>
      <point x="573" y="710" type="line"/>
      <point x="-5" y="9" type="line"/>
    </contour>
    <contour>
      <point x="231" y="700" type="line"/>
      <point x="118" y="633" type="line"/>
      <point x="129" y="605" type="line"/>
      <point x="223" y="661" type="line"/>
      <point x="165" y="388" type="line"/>
      <point x="200" y="388" type="line"/>
      <point x="266" y="700" type="line"/>
    </contour>
    <contour>
      <point x="487" y="263" type="line"/>
      <point x="322" y="1" type="line"/>
      <point x="352" y="-13" type="line"/>
      <point x="522" y="261" type="line"/>
      <point x="533" y="312" type="line"/>
      <point x="341" y="312" type="line"/>
      <point x="334" y="278" type="line"/>
      <point x="490" y="278" type="line"/>
    </contour>
  </outline>
</glyph>
<glyph name="uni215F" format="2">
  <advance width="526"/>
  <unicode hex="215F"/>
  <note>
uni215F
</note>
  <outline>
    <contour>
      <point x="17" y="-12" type="line"/>
      <point x="596" y="690" type="line"/>
      <point x="573" y="710" type="line"/>
      <point x="-5" y="9" type="line"/>
    </contour>
    <contour>
      <point x="231" y="700" type="line"/>
      <point x="118" y="633" type="line"/>
      <point x="129" y="605" type="line"/>
      <point x="223" y="661" type="line"/>
      <point x="165" y="388" type="line"/>
      <point x="200" y="388" type="line"/>
      <point x="266" y="700" type="line"/>
    </contour>
  </outline>
</glyph>
<glyph name="uni2206" format="2">
  <advance width="506"/>
  <unicode hex="2206"/>
  <note>
uni2206
</note>
  <outline>
    <contour>
      <point x="425" y="26" type="line"/>
      <point x="378" y="660" type="line"/>
      <point x="302" y="660" type="line"/>
      <point x="-15" y="26" type="line"/>
      <point x="-20" y="0" type="line"/>
      <point x="421" y="0" type="line"/>
    </contour>
    <contour>
      <point x="387" y="34" type="line"/>
      <point x="28" y="34" type="line"/>
      <point x="321" y="626" type="line"/>
      <point x="346" y="626" type="line"/>
    </contour>
  </outline>
</glyph>
<glyph name="uni2460" format="2">
  <advance width="906"/>
  <unicode hex="2460"/>
  <note>
uni2460
</note>
  <outline>
    <contour>
      <point x="397" y="-40" type="curve" smooth="yes"/>
      <point x="657" y="-40"/>
      <point x="880" y="185"/>
      <point x="880" y="424" type="curve" smooth="yes"/>
      <point x="880" y="606"/>
      <point x="749" y="740"/>
      <point x="551" y="740" type="curve" smooth="yes"/>
      <point x="294" y="740"/>
      <point x="69" y="517"/>
      <point x="69" y="274" type="curve" smooth="yes"/>
      <point x="69" y="91"/>
      <point x="199" y="-40"/>
    </contour>
    <contour>
      <point x="110" y="278" type="curve" smooth="yes"/>
      <point x="110" y="489"/>
      <point x="307" y="701"/>
      <point x="547" y="701" type="curve" smooth="yes"/>
      <point x="727" y="701"/>
      <point x="839" y="586"/>
      <point x="839" y="421" type="curve" smooth="yes"/>
      <point x="839" y="207"/>
      <point x="641" y="-1"/>
      <point x="402" y="-1" type="curve" smooth="yes"/>
      <point x="223" y="-1"/>
      <point x="110" y="113"/>
    </contour>
    <contour>
      <point x="504" y="527" type="line"/>
      <point x="380" y="454" type="line"/>
      <point x="392" y="423" type="line"/>
      <point x="496" y="484" type="line"/>
      <point x="432" y="184" type="line"/>
      <point x="470" y="184" type="line"/>
      <point x="543" y="527" type="line"/>
    </contour>
  </outline>
</glyph>
<glyph name="uni2461" format="2">
  <advance width="906"/>
  <unicode hex="2461"/>
  <note>
uni2461
</note>
  <outline>
    <contour>
      <point x="397" y="-40" type="curve" smooth="yes"/>
      <point x="657" y="-40"/>
      <point x="880" y="185"/>
      <point x="880" y="424" type="curve" smooth="yes"/>
      <point x="880" y="606"/>
      <point x="749" y="740"/>
      <point x="551" y="740" type="curve" smooth="yes"/>
      <point x="294" y="740"/>
      <point x="69" y="517"/>
      <point x="69" y="274" type="curve" smooth="yes"/>
      <point x="69" y="91"/>
      <point x="199" y="-40"/>
    </contour>
    <contour>
      <point x="110" y="278" type="curve" smooth="yes"/>
      <point x="110" y="489"/>
      <point x="307" y="701"/>
      <point x="547" y="701" type="curve" smooth="yes"/>
      <point x="727" y="701"/>
      <point x="839" y="586"/>
      <point x="839" y="421" type="curve" smooth="yes"/>
      <point x="839" y="207"/>
      <point x="641" y="-1"/>
      <point x="402" y="-1" type="curve" smooth="yes"/>
      <point x="223" y="-1"/>
      <point x="110" y="113"/>
    </contour>
    <contour>
      <point x="340" y="218" type="line"/>
      <point x="333" y="184" type="line"/>
      <point x="547" y="184" type="line"/>
      <point x="554" y="220" type="line"/>
      <point x="388" y="220" type="line"/>
      <point x="495" y="312" type="line" smooth="yes"/>
      <point x="550" y="358"/>
      <point x="597" y="393"/>
      <point x="597" y="461" type="curve" smooth="yes"/>
      <point x="597" y="504"/>
      <point x="575" y="537"/>
      <point x="514" y="537" type="curve" smooth="yes"/>
      <point x="467" y="537"/>
      <point x="408" y="523"/>
      <point x="408" y="523" type="curve"/>
      <point x="404" y="491" type="line"/>
      <point x="404" y="491"/>
      <point x="467" y="502"/>
      <point x="505" y="502" type="curve" smooth="yes"/>
      <point x="536" y="502"/>
      <point x="558" y="489"/>
      <point x="558" y="460" type="curve" smooth="yes"/>
      <point x="558" y="412"/>
      <point x="511" y="370"/>
      <point x="473" y="336" type="curve" smooth="yes"/>
    </contour>
  </outline>
</glyph>
<glyph name="uni2463" format="2">
  <advance width="906"/>
  <unicode hex="2463"/>
  <note>
uni2463
</note>
  <outline>
    <contour>
      <point x="397" y="-40" type="curve" smooth="yes"/>
      <point x="657" y="-40"/>
      <point x="880" y="185"/>
      <point x="880" y="424" type="curve" smooth="yes"/>
      <point x="880" y="606"/>
      <point x="749" y="740"/>
      <point x="551" y="740" type="curve" smooth="yes"/>
      <point x="294" y="740"/>
      <point x="69" y="517"/>
      <point x="69" y="274" type="curve" smooth="yes"/>
      <point x="69" y="91"/>
      <point x="199" y="-40"/>
    </contour>
    <contour>
      <point x="110" y="278" type="curve" smooth="yes"/>
      <point x="110" y="489"/>
      <point x="307" y="701"/>
      <point x="547" y="701" type="curve" smooth="yes"/>
      <point x="727" y="701"/>
      <point x="839" y="586"/>
      <point x="839" y="421" type="curve" smooth="yes"/>
      <point x="839" y="207"/>
      <point x="641" y="-1"/>
      <point x="402" y="-1" type="curve" smooth="yes"/>
      <point x="223" y="-1"/>
      <point x="110" y="113"/>
    </contour>
    <contour>
      <point x="331" y="281" type="line"/>
      <point x="324" y="247" type="line"/>
      <point x="485" y="247" type="line"/>
      <point x="471" y="184" type="line"/>
      <point x="511" y="184" type="line"/>
      <point x="524" y="247" type="line"/>
      <point x="565" y="247" type="line"/>
      <point x="573" y="283" type="line"/>
      <point x="532" y="283" type="line"/>
      <point x="553" y="380" type="line"/>
      <point x="513" y="380" type="line"/>
      <point x="492" y="283" type="line"/>
      <point x="376" y="283" type="line"/>
      <point x="523" y="527" type="line"/>
      <point x="481" y="527" type="line"/>
    </contour>
  </outline>
</glyph>
<glyph name="uni2464" format="2">
  <advance width="906"/>
  <unicode hex="2464"/>
  <note>
uni2464
</note>
  <outline>
    <contour>
      <point x="397" y="-40" type="curve" smooth="yes"/>
      <point x="657" y="-40"/>
      <point x="880" y="185"/>
      <point x="880" y="424" type="curve" smooth="yes"/>
      <point x="880" y="606"/>
      <point x="749" y="740"/>
      <point x="551" y="740" type="curve" smooth="yes"/>
      <point x="294" y="740"/>
      <point x="69" y="517"/>
      <point x="69" y="274" type="curve" smooth="yes"/>
      <point x="69" y="91"/>
      <point x="199" y="-40"/>
    </contour>
    <contour>
      <point x="110" y="278" type="curve" smooth="yes"/>
      <point x="110" y="489"/>
      <point x="307" y="701"/>
      <point x="547" y="701" type="curve" smooth="yes"/>
      <point x="727" y="701"/>
      <point x="839" y="586"/>
      <point x="839" y="421" type="curve" smooth="yes"/>
      <point x="839" y="207"/>
      <point x="641" y="-1"/>
      <point x="402" y="-1" type="curve" smooth="yes"/>
      <point x="223" y="-1"/>
      <point x="110" y="113"/>
    </contour>
    <contour>
      <point x="345" y="220" type="curve"/>
      <point x="334" y="187" type="line"/>
      <point x="334" y="187"/>
      <point x="392" y="173"/>
      <point x="442" y="173" type="curve" smooth="yes"/>
      <point x="530" y="173"/>
      <point x="577" y="240"/>
      <point x="577" y="320" type="curve" smooth="yes"/>
      <point x="577" y="375"/>
      <point x="542" y="399"/>
      <point x="495" y="399" type="curve" smooth="yes"/>
      <point x="454" y="399"/>
      <point x="412" y="375"/>
      <point x="412" y="375" type="curve"/>
      <point x="447" y="491" type="line"/>
      <point x="605" y="491" type="line"/>
      <point x="612" y="527" type="line"/>
      <point x="421" y="527" type="line"/>
      <point x="371" y="340" type="line"/>
      <point x="404" y="338" type="line"/>
      <point x="404" y="338"/>
      <point x="443" y="362"/>
      <point x="487" y="362" type="curve" smooth="yes"/>
      <point x="514" y="362"/>
      <point x="537" y="351"/>
      <point x="537" y="315" type="curve" smooth="yes"/>
      <point x="537" y="271"/>
      <point x="517" y="209"/>
      <point x="442" y="209" type="curve" smooth="yes"/>
      <point x="394" y="209"/>
      <point x="345" y="220"/>
    </contour>
  </outline>
</glyph>
<glyph name="uni2465" format="2">
  <advance width="906"/>
  <unicode hex="2465"/>
  <note>
uni2465
</note>
  <outline>
    <contour>
      <point x="397" y="-40" type="curve" smooth="yes"/>
      <point x="657" y="-40"/>
      <point x="880" y="185"/>
      <point x="880" y="424" type="curve" smooth="yes"/>
      <point x="880" y="606"/>
      <point x="749" y="740"/>
      <point x="551" y="740" type="curve" smooth="yes"/>
      <point x="294" y="740"/>
      <point x="69" y="517"/>
      <point x="69" y="274" type="curve" smooth="yes"/>
      <point x="69" y="91"/>
      <point x="199" y="-40"/>
    </contour>
    <contour>
      <point x="110" y="278" type="curve" smooth="yes"/>
      <point x="110" y="489"/>
      <point x="307" y="701"/>
      <point x="547" y="701" type="curve" smooth="yes"/>
      <point x="727" y="701"/>
      <point x="839" y="586"/>
      <point x="839" y="421" type="curve" smooth="yes"/>
      <point x="839" y="207"/>
      <point x="641" y="-1"/>
      <point x="402" y="-1" type="curve" smooth="yes"/>
      <point x="223" y="-1"/>
      <point x="110" y="113"/>
    </contour>
    <contour>
      <point x="345" y="295" type="curve" smooth="yes"/>
      <point x="345" y="209"/>
      <point x="389" y="173"/>
      <point x="456" y="173" type="curve" smooth="yes"/>
      <point x="537" y="173"/>
      <point x="579" y="250"/>
      <point x="579" y="319" type="curve" smooth="yes"/>
      <point x="579" y="370"/>
      <point x="548" y="406"/>
      <point x="484" y="406" type="curve" smooth="yes"/>
      <point x="447" y="406"/>
      <point x="398" y="383"/>
      <point x="398" y="384" type="curve" smooth="yes"/>
      <point x="417" y="469"/>
      <point x="454" y="501"/>
      <point x="510" y="501" type="curve" smooth="yes"/>
      <point x="552" y="501"/>
      <point x="593" y="493"/>
      <point x="593" y="493" type="curve"/>
      <point x="603" y="527" type="line"/>
      <point x="603" y="527"/>
      <point x="558" y="537"/>
      <point x="517" y="537" type="curve" smooth="yes"/>
      <point x="391" y="537"/>
      <point x="345" y="400"/>
    </contour>
    <contour>
      <point x="383" y="291" type="curve" smooth="yes"/>
      <point x="383" y="306"/>
      <point x="385" y="325"/>
      <point x="389" y="346" type="curve" smooth="yes"/>
      <point x="389" y="347"/>
      <point x="435" y="371"/>
      <point x="476" y="371" type="curve" smooth="yes"/>
      <point x="519" y="371"/>
      <point x="541" y="353"/>
      <point x="541" y="317" type="curve" smooth="yes"/>
      <point x="541" y="271"/>
      <point x="519" y="209"/>
      <point x="451" y="209" type="curve" smooth="yes"/>
      <point x="406" y="209"/>
      <point x="383" y="238"/>
    </contour>
  </outline>
</glyph>
<glyph name="uni2467" format="2">
  <advance width="906"/>
  <unicode hex="2467"/>
  <note>
uni2467
</note>
  <outline>
    <contour>
      <point x="397" y="-40" type="curve" smooth="yes"/>
      <point x="657" y="-40"/>
      <point x="880" y="185"/>
      <point x="880" y="424" type="curve" smooth="yes"/>
      <point x="880" y="606"/>
      <point x="749" y="740"/>
      <point x="551" y="740" type="curve" smooth="yes"/>
      <point x="294" y="740"/>
      <point x="69" y="517"/>
      <point x="69" y="274" type="curve" smooth="yes"/>
      <point x="69" y="91"/>
      <point x="199" y="-40"/>
    </contour>
    <contour>
      <point x="110" y="278" type="curve" smooth="yes"/>
      <point x="110" y="489"/>
      <point x="307" y="701"/>
      <point x="547" y="701" type="curve" smooth="yes"/>
      <point x="727" y="701"/>
      <point x="839" y="586"/>
      <point x="839" y="421" type="curve" smooth="yes"/>
      <point x="839" y="207"/>
      <point x="641" y="-1"/>
      <point x="402" y="-1" type="curve" smooth="yes"/>
      <point x="223" y="-1"/>
      <point x="110" y="113"/>
    </contour>
    <contour>
      <point x="336" y="253" type="curve" smooth="yes"/>
      <point x="336" y="202"/>
      <point x="380" y="173"/>
      <point x="450" y="173" type="curve" smooth="yes"/>
      <point x="532" y="173"/>
      <point x="593" y="212"/>
      <point x="593" y="293" type="curve" smooth="yes"/>
      <point x="593" y="329"/>
      <point x="571" y="352"/>
      <point x="538" y="366" type="curve"/>
      <point x="603" y="385"/>
      <point x="614" y="424"/>
      <point x="614" y="464" type="curve" smooth="yes"/>
      <point x="614" y="510"/>
      <point x="574" y="536"/>
      <point x="508" y="536" type="curve" smooth="yes"/>
      <point x="426" y="536"/>
      <point x="377" y="498"/>
      <point x="377" y="434" type="curve" smooth="yes"/>
      <point x="377" y="399"/>
      <point x="393" y="378"/>
      <point x="424" y="366" type="curve"/>
      <point x="364" y="344"/>
      <point x="336" y="312"/>
    </contour>
    <contour>
      <point x="375" y="263" type="curve" smooth="yes"/>
      <point x="375" y="300"/>
      <point x="400" y="334"/>
      <point x="458" y="348" type="curve"/>
      <point x="497" y="348" type="line"/>
      <point x="531" y="339"/>
      <point x="553" y="325"/>
      <point x="553" y="291" type="curve" smooth="yes"/>
      <point x="553" y="238"/>
      <point x="516" y="209"/>
      <point x="453" y="209" type="curve" smooth="yes"/>
      <point x="406" y="209"/>
      <point x="375" y="224"/>
    </contour>
    <contour>
      <point x="417" y="427" type="curve" smooth="yes"/>
      <point x="417" y="475"/>
      <point x="442" y="500"/>
      <point x="508" y="500" type="curve" smooth="yes"/>
      <point x="554" y="500"/>
      <point x="574" y="487"/>
      <point x="574" y="459" type="curve" smooth="yes"/>
      <point x="574" y="416"/>
      <point x="549" y="395"/>
      <point x="503" y="383" type="curve"/>
      <point x="463" y="383" type="line"/>
      <point x="432" y="394"/>
      <point x="417" y="404"/>
    </contour>
  </outline>
</glyph>
<glyph name="uni2468" format="2">
  <advance width="906"/>
  <unicode hex="2468"/>
  <note>
uni2468
</note>
  <outline>
    <contour>
      <point x="397" y="-40" type="curve" smooth="yes"/>
      <point x="657" y="-40"/>
      <point x="880" y="185"/>
      <point x="880" y="424" type="curve" smooth="yes"/>
      <point x="880" y="606"/>
      <point x="749" y="740"/>
      <point x="551" y="740" type="curve" smooth="yes"/>
      <point x="294" y="740"/>
      <point x="69" y="517"/>
      <point x="69" y="274" type="curve" smooth="yes"/>
      <point x="69" y="91"/>
      <point x="199" y="-40"/>
    </contour>
    <contour>
      <point x="110" y="278" type="curve" smooth="yes"/>
      <point x="110" y="489"/>
      <point x="307" y="701"/>
      <point x="547" y="701" type="curve" smooth="yes"/>
      <point x="727" y="701"/>
      <point x="839" y="586"/>
      <point x="839" y="421" type="curve" smooth="yes"/>
      <point x="839" y="207"/>
      <point x="641" y="-1"/>
      <point x="402" y="-1" type="curve" smooth="yes"/>
      <point x="223" y="-1"/>
      <point x="110" y="113"/>
    </contour>
    <contour>
      <point x="350" y="217" type="curve"/>
      <point x="340" y="184" type="line"/>
      <point x="340" y="184"/>
      <point x="392" y="173"/>
      <point x="432" y="173" type="curve" smooth="yes"/>
      <point x="580" y="173"/>
      <point x="606" y="344"/>
      <point x="606" y="422" type="curve" smooth="yes"/>
      <point x="606" y="499"/>
      <point x="559" y="536"/>
      <point x="498" y="536" type="curve" smooth="yes"/>
      <point x="415" y="536"/>
      <point x="373" y="476"/>
      <point x="373" y="395" type="curve" smooth="yes"/>
      <point x="373" y="337"/>
      <point x="410" y="306"/>
      <point x="468" y="306" type="curve" smooth="yes"/>
      <point x="507" y="306"/>
      <point x="552" y="325"/>
      <point x="552" y="325" type="curve"/>
      <point x="535" y="249"/>
      <point x="503" y="209"/>
      <point x="440" y="209" type="curve" smooth="yes"/>
      <point x="399" y="209"/>
      <point x="350" y="217"/>
    </contour>
    <contour>
      <point x="413" y="399" type="curve" smooth="yes"/>
      <point x="413" y="445"/>
      <point x="433" y="500"/>
      <point x="497" y="500" type="curve" smooth="yes"/>
      <point x="541" y="500"/>
      <point x="568" y="476"/>
      <point x="568" y="426" type="curve" smooth="yes"/>
      <point x="568" y="409"/>
      <point x="565" y="387"/>
      <point x="560" y="361" type="curve"/>
      <point x="560" y="361"/>
      <point x="506" y="341"/>
      <point x="470" y="341" type="curve" smooth="yes"/>
      <point x="428" y="341"/>
      <point x="413" y="360"/>
    </contour>
  </outline>
</glyph>
<glyph name="uni24FF" format="2">
  <advance width="906"/>
  <unicode hex="24FF"/>
  <note>
uni24FF
</note>
  <outline>
    <contour>
      <point x="505" y="537" type="curve" smooth="yes"/>
      <point x="392" y="537"/>
      <point x="344" y="402"/>
      <point x="344" y="283" type="curve" smooth="yes"/>
      <point x="344" y="205"/>
      <point x="384" y="173"/>
      <point x="443" y="173" type="curve" smooth="yes"/>
      <point x="555" y="173"/>
      <point x="608" y="304"/>
      <point x="608" y="430" type="curve" smooth="yes"/>
      <point x="608" y="505"/>
      <point x="565" y="537"/>
    </contour>
    <contour>
      <point x="69" y="274" type="curve" smooth="yes"/>
      <point x="69" y="517"/>
      <point x="294" y="740"/>
      <point x="551" y="740" type="curve" smooth="yes"/>
      <point x="749" y="740"/>
      <point x="880" y="606"/>
      <point x="880" y="424" type="curve" smooth="yes"/>
      <point x="880" y="185"/>
      <point x="657" y="-40"/>
      <point x="397" y="-40" type="curve" smooth="yes"/>
      <point x="199" y="-40"/>
      <point x="69" y="91"/>
    </contour>
    <contour>
      <point x="382" y="285" type="curve" smooth="yes"/>
      <point x="382" y="385"/>
      <point x="427" y="503"/>
      <point x="505" y="503" type="curve" smooth="yes"/>
      <point x="547" y="503"/>
      <point x="568" y="478"/>
      <point x="568" y="427" type="curve" smooth="yes"/>
      <point x="568" y="327"/>
      <point x="527" y="208"/>
      <point x="444" y="208" type="curve" smooth="yes"/>
      <point x="405" y="208"/>
      <point x="382" y="230"/>
    </contour>
  </outline>
</glyph>
<glyph name="uni2776" format="2">
  <advance width="906"/>
  <unicode hex="2776"/>
  <note>
uni2776
</note>
  <outline>
    <contour>
      <point x="470" y="184" type="line"/>
      <point x="543" y="527" type="line"/>
      <point x="504" y="527" type="line"/>
      <point x="380" y="454" type="line"/>
      <point x="392" y="423" type="line"/>
      <point x="496" y="484" type="line"/>
      <point x="432" y="184" type="line"/>
    </contour>
    <contour>
      <point x="69" y="274" type="curve" smooth="yes"/>
      <point x="69" y="517"/>
      <point x="294" y="740"/>
      <point x="551" y="740" type="curve" smooth="yes"/>
      <point x="749" y="740"/>
      <point x="880" y="606"/>
      <point x="880" y="424" type="curve" smooth="yes"/>
      <point x="880" y="185"/>
      <point x="657" y="-40"/>
      <point x="397" y="-40" type="curve" smooth="yes"/>
      <point x="199" y="-40"/>
      <point x="69" y="91"/>
    </contour>
  </outline>
</glyph>
<glyph name="uni2778" format="2">
  <advance width="906"/>
  <unicode hex="2778"/>
  <note>
uni2778
</note>
  <outline>
    <contour>
      <point x="404" y="525" type="curve"/>
      <point x="400" y="491" type="line"/>
      <point x="400" y="491"/>
      <point x="457" y="501"/>
      <point x="508" y="501" type="curve" smooth="yes"/>
      <point x="547" y="501"/>
      <point x="563" y="482"/>
      <point x="563" y="455" type="curve" smooth="yes"/>
      <point x="563" y="406"/>
      <point x="524" y="380"/>
      <point x="490" y="380" type="curve" smooth="yes"/>
      <point x="419" y="380" type="line"/>
      <point x="411" y="344" type="line"/>
      <point x="482" y="344" type="line" smooth="yes"/>
      <point x="513" y="344"/>
      <point x="535" y="331"/>
      <point x="535" y="297" type="curve" smooth="yes"/>
      <point x="535" y="246"/>
      <point x="508" y="209"/>
      <point x="450" y="209" type="curve" smooth="yes"/>
      <point x="395" y="209"/>
      <point x="338" y="220"/>
      <point x="338" y="220" type="curve"/>
      <point x="327" y="186" type="line"/>
      <point x="327" y="186"/>
      <point x="389" y="173"/>
      <point x="443" y="173" type="curve" smooth="yes"/>
      <point x="533" y="173"/>
      <point x="576" y="221"/>
      <point x="576" y="295" type="curve" smooth="yes"/>
      <point x="576" y="330"/>
      <point x="560" y="358"/>
      <point x="531" y="366" type="curve"/>
      <point x="577" y="381"/>
      <point x="602" y="414"/>
      <point x="602" y="460" type="curve" smooth="yes"/>
      <point x="602" y="505"/>
      <point x="574" y="537"/>
      <point x="514" y="537" type="curve" smooth="yes"/>
      <point x="465" y="537"/>
      <point x="404" y="525"/>
    </contour>
    <contour>
      <point x="69" y="274" type="curve" smooth="yes"/>
      <point x="69" y="517"/>
      <point x="294" y="740"/>
      <point x="551" y="740" type="curve" smooth="yes"/>
      <point x="749" y="740"/>
      <point x="880" y="606"/>
      <point x="880" y="424" type="curve" smooth="yes"/>
      <point x="880" y="185"/>
      <point x="657" y="-40"/>
      <point x="397" y="-40" type="curve" smooth="yes"/>
      <point x="199" y="-40"/>
      <point x="69" y="91"/>
    </contour>
  </outline>
</glyph>
<glyph name="uni2779" format="2">
  <advance width="906"/>
  <unicode hex="2779"/>
  <note>
uni2779
</note>
  <outline>
    <contour>
      <point x="331" y="281" type="line"/>
      <point x="324" y="247" type="line"/>
      <point x="485" y="247" type="line"/>
      <point x="471" y="184" type="line"/>
      <point x="511" y="184" type="line"/>
      <point x="524" y="247" type="line"/>
      <point x="565" y="247" type="line"/>
      <point x="573" y="283" type="line"/>
      <point x="532" y="283" type="line"/>
      <point x="553" y="380" type="line"/>
      <point x="513" y="380" type="line"/>
      <point x="492" y="283" type="line"/>
      <point x="376" y="283" type="line"/>
      <point x="523" y="527" type="line"/>
      <point x="481" y="527" type="line"/>
    </contour>
    <contour>
      <point x="69" y="274" type="curve" smooth="yes"/>
      <point x="69" y="517"/>
      <point x="294" y="740"/>
      <point x="551" y="740" type="curve" smooth="yes"/>
      <point x="749" y="740"/>
      <point x="880" y="606"/>
      <point x="880" y="424" type="curve" smooth="yes"/>
      <point x="880" y="185"/>
      <point x="657" y="-40"/>
      <point x="397" y="-40" type="curve" smooth="yes"/>
      <point x="199" y="-40"/>
      <point x="69" y="91"/>
    </contour>
  </outline>
</glyph>
<glyph name="uni277C" format="2">
  <advance width="906"/>
  <unicode hex="277C"/>
  <note>
uni277C
</note>
  <outline>
    <contour>
      <point x="596" y="472" type="line"/>
      <point x="608" y="528" type="line"/>
      <point x="397" y="528" type="line"/>
      <point x="389" y="491" type="line"/>
      <point x="561" y="491" type="line"/>
      <point x="557" y="474" type="line"/>
      <point x="376" y="186" type="line"/>
      <point x="409" y="171" type="line"/>
    </contour>
    <contour>
      <point x="69" y="274" type="curve" smooth="yes"/>
      <point x="69" y="517"/>
      <point x="294" y="740"/>
      <point x="551" y="740" type="curve" smooth="yes"/>
      <point x="749" y="740"/>
      <point x="880" y="606"/>
      <point x="880" y="424" type="curve" smooth="yes"/>
      <point x="880" y="185"/>
      <point x="657" y="-40"/>
      <point x="397" y="-40" type="curve" smooth="yes"/>
      <point x="199" y="-40"/>
      <point x="69" y="91"/>
    </contour>
  </outline>
</glyph>
<glyph name="uni277D" format="2">
  <advance width="906"/>
  <unicode hex="277D"/>
  <note>
uni277D
</note>
  <outline>
    <contour>
      <point x="508" y="536" type="curve" smooth="yes"/>
      <point x="426" y="536"/>
      <point x="377" y="498"/>
      <point x="377" y="434" type="curve" smooth="yes"/>
      <point x="377" y="399"/>
      <point x="393" y="378"/>
      <point x="424" y="366" type="curve"/>
      <point x="364" y="344"/>
      <point x="336" y="312"/>
      <point x="336" y="253" type="curve" smooth="yes"/>
      <point x="336" y="202"/>
      <point x="380" y="173"/>
      <point x="450" y="173" type="curve" smooth="yes"/>
      <point x="532" y="173"/>
      <point x="593" y="212"/>
      <point x="593" y="293" type="curve" smooth="yes"/>
      <point x="593" y="329"/>
      <point x="571" y="352"/>
      <point x="538" y="366" type="curve"/>
      <point x="603" y="385"/>
      <point x="614" y="424"/>
      <point x="614" y="464" type="curve" smooth="yes"/>
      <point x="614" y="510"/>
      <point x="574" y="536"/>
    </contour>
    <contour>
      <point x="69" y="274" type="curve" smooth="yes"/>
      <point x="69" y="517"/>
      <point x="294" y="740"/>
      <point x="551" y="740" type="curve" smooth="yes"/>
      <point x="749" y="740"/>
      <point x="880" y="606"/>
      <point x="880" y="424" type="curve" smooth="yes"/>
      <point x="880" y="185"/>
      <point x="657" y="-40"/>
      <point x="397" y="-40" type="curve" smooth="yes"/>
      <point x="199" y="-40"/>
      <point x="69" y="91"/>
    </contour>
    <contour>
      <point x="375" y="263" type="curve" smooth="yes"/>
      <point x="375" y="300"/>
      <point x="400" y="334"/>
      <point x="458" y="348" type="curve"/>
      <point x="497" y="348" type="line"/>
      <point x="531" y="339"/>
      <point x="553" y="325"/>
      <point x="553" y="291" type="curve" smooth="yes"/>
      <point x="553" y="238"/>
      <point x="516" y="209"/>
      <point x="453" y="209" type="curve" smooth="yes"/>
      <point x="406" y="209"/>
      <point x="375" y="224"/>
    </contour>
    <contour>
      <point x="417" y="427" type="curve" smooth="yes"/>
      <point x="417" y="475"/>
      <point x="442" y="500"/>
      <point x="508" y="500" type="curve" smooth="yes"/>
      <point x="554" y="500"/>
      <point x="574" y="487"/>
      <point x="574" y="459" type="curve" smooth="yes"/>
      <point x="574" y="416"/>
      <point x="549" y="395"/>
      <point x="503" y="383" type="curve"/>
      <point x="463" y="383" type="line"/>
      <point x="432" y="394"/>
      <point x="417" y="404"/>
    </contour>
  </outline>
</glyph>
<glyph name="uni277E" format="2">
  <advance width="906"/>
  <unicode hex="277E"/>
  <note>
uni277E
</note>
  <outline>
    <contour>
      <point x="350" y="217" type="curve"/>
      <point x="340" y="184" type="line"/>
      <point x="340" y="184"/>
      <point x="392" y="173"/>
      <point x="432" y="173" type="curve" smooth="yes"/>
      <point x="580" y="173"/>
      <point x="606" y="344"/>
      <point x="606" y="422" type="curve" smooth="yes"/>
      <point x="606" y="499"/>
      <point x="559" y="536"/>
      <point x="498" y="536" type="curve" smooth="yes"/>
      <point x="415" y="536"/>
      <point x="373" y="476"/>
      <point x="373" y="395" type="curve" smooth="yes"/>
      <point x="373" y="337"/>
      <point x="410" y="306"/>
      <point x="468" y="306" type="curve" smooth="yes"/>
      <point x="507" y="306"/>
      <point x="552" y="325"/>
      <point x="552" y="325" type="curve"/>
      <point x="535" y="249"/>
      <point x="503" y="209"/>
      <point x="440" y="209" type="curve" smooth="yes"/>
      <point x="399" y="209"/>
      <point x="350" y="217"/>
    </contour>
    <contour>
      <point x="69" y="274" type="curve" smooth="yes"/>
      <point x="69" y="517"/>
      <point x="294" y="740"/>
      <point x="551" y="740" type="curve" smooth="yes"/>
      <point x="749" y="740"/>
      <point x="880" y="606"/>
      <point x="880" y="424" type="curve" smooth="yes"/>
      <point x="880" y="185"/>
      <point x="657" y="-40"/>
      <point x="397" y="-40" type="curve" smooth="yes"/>
      <point x="199" y="-40"/>
      <point x="69" y="91"/>
    </contour>
    <contour>
      <point x="413" y="399" type="curve" smooth="yes"/>
      <point x="413" y="445"/>
      <point x="433" y="500"/>
      <point x="497" y="500" type="curve" smooth="yes"/>
      <point x="541" y="500"/>
      <point x="568" y="476"/>
      <point x="568" y="426" type="curve" smooth="yes"/>
      <point x="568" y="409"/>
      <point x="565" y="387"/>
      <point x="560" y="361" type="curve"/>
      <point x="560" y="361"/>
      <point x="506" y="341"/>
      <point x="470" y="341" type="curve" smooth="yes"/>
      <point x="428" y="341"/>
      <point x="413" y="360"/>
    </contour>
  </outline>
</glyph>
<glyph name="uni2B1C" format="2">
  <advance width="1183"/>
  <unicode hex="2B1C"/>
  <note>
uni2B1C
</note>
  <outline>
    <contour>
      <point x="-78" y="-230" type="line"/>
      <point x="164" y="904" type="line"/>
      <point x="1298" y="904" type="line"/>
      <point x="1056" y="-230" type="line"/>
    </contour>
    <contour>
      <point x="192" y="870" type="line"/>
      <point x="-34" y="-196" type="line"/>
      <point x="1028" y="-196" type="line"/>
      <point x="1254" y="870" type="line"/>
    </contour>
  </outline>
</glyph>
<glyph name="A.ss03" format="2">
  <advance width="1265"/>
  <note>
A.ss03
</note>
  <outline>
    <contour>
      <point x="525" y="-271" type="curve" smooth="yes"/>
      <point x="943" y="-271"/>
      <point x="1271" y="87"/>
      <point x="1271" y="459" type="curve" smooth="yes"/>
      <point x="1271" y="745"/>
      <point x="1074" y="938"/>
      <point x="772" y="938" type="curve" smooth="yes"/>
      <point x="350" y="938"/>
      <point x="29" y="577"/>
      <point x="29" y="207" type="curve" smooth="yes"/>
      <point x="29" y="-82"/>
      <point x="228" y="-271"/>
    </contour>
    <contour>
      <point x="69" y="211" type="curve" smooth="yes"/>
      <point x="69" y="567"/>
      <point x="380" y="902"/>
      <point x="770" y="902" type="curve" smooth="yes"/>
      <point x="1050" y="902"/>
      <point x="1231" y="731"/>
      <point x="1231" y="455" type="curve" smooth="yes"/>
      <point x="1231" y="100"/>
      <point x="916" y="-235"/>
      <point x="526" y="-235" type="curve" smooth="yes"/>
      <point x="246" y="-235"/>
      <point x="69" y="-64"/>
    </contour>
    <contour>
      <point x="672" y="700" type="line"/>
      <point x="310" y="0" type="line"/>
      <point x="349" y="0" type="line"/>
      <point x="458" y="215" type="line"/>
      <point x="761" y="215" type="line"/>
      <point x="780" y="0" type="line"/>
      <point x="814" y="0" type="line"/>
      <point x="752" y="700" type="line"/>
    </contour>
    <contour>
      <point x="758" y="249" type="line"/>
      <point x="476" y="249" type="line"/>
      <point x="691" y="666" type="line"/>
      <point x="721" y="666" type="line"/>
    </contour>
  </outline>
</glyph>
<glyph name="A.ss04" format="2">
  <advance width="1266"/>
  <note>
A.ss04
</note>
  <outline>
    <contour>
      <point x="526" y="-271" type="curve" smooth="yes"/>
      <point x="227" y="-271"/>
      <point x="30" y="-86"/>
      <point x="30" y="207" type="curve" smooth="yes"/>
      <point x="30" y="580"/>
      <point x="347" y="938"/>
      <point x="773" y="938" type="curve" smooth="yes"/>
      <point x="1078" y="938"/>
      <point x="1272" y="747"/>
      <point x="1272" y="459" type="curve" smooth="yes"/>
      <point x="1272" y="85"/>
      <point x="948" y="-271"/>
    </contour>
    <contour>
      <point x="672" y="700" type="line"/>
      <point x="310" y="0" type="line"/>
      <point x="349" y="0" type="line"/>
      <point x="458" y="215" type="line"/>
      <point x="761" y="215" type="line"/>
      <point x="780" y="0" type="line"/>
      <point x="814" y="0" type="line"/>
      <point x="752" y="700" type="line"/>
    </contour>
    <contour>
      <point x="758" y="249" type="line"/>
      <point x="476" y="249" type="line"/>
      <point x="691" y="666" type="line"/>
      <point x="721" y="666" type="line"/>
    </contour>
  </outline>
</glyph>
<glyph name="B.ss03" format="2">
  <advance width="1265"/>
  <note>
B.ss03
</note>
  <outline>
    <contour>
      <point x="525" y="-271" type="curve" smooth="yes"/>
      <point x="943" y="-271"/>
      <point x="1271" y="87"/>
      <point x="1271" y="459" type="curve" smooth="yes"/>
      <point x="1271" y="745"/>
      <point x="1074" y="938"/>
      <point x="772" y="938" type="curve" smooth="yes"/>
      <point x="350" y="938"/>
      <point x="29" y="577"/>
      <point x="29" y="207" type="curve" smooth="yes"/>
      <point x="29" y="-82"/>
      <point x="228" y="-271"/>
    </contour>
    <contour>
      <point x="69" y="211" type="curve" smooth="yes"/>
      <point x="69" y="567"/>
      <point x="380" y="902"/>
      <point x="770" y="902" type="curve" smooth="yes"/>
      <point x="1050" y="902"/>
      <point x="1231" y="731"/>
      <point x="1231" y="455" type="curve" smooth="yes"/>
      <point x="1231" y="100"/>
      <point x="916" y="-235"/>
      <point x="526" y="-235" type="curve" smooth="yes"/>
      <point x="246" y="-235"/>
      <point x="69" y="-64"/>
    </contour>
    <contour>
      <point x="529" y="700" type="line"/>
      <point x="380" y="0" type="line"/>
      <point x="615" y="0" type="line" smooth="yes"/>
      <point x="817" y="0"/>
      <point x="870" y="122"/>
      <point x="870" y="226" type="curve" smooth="yes"/>
      <point x="870" y="318"/>
      <point x="826" y="345"/>
      <point x="773" y="360" type="curve"/>
      <point x="880" y="386"/>
      <point x="911" y="499"/>
      <point x="911" y="567" type="curve" smooth="yes"/>
      <point x="911" y="656"/>
      <point x="844" y="700"/>
      <point x="731" y="700" type="curve" smooth="yes"/>
    </contour>
    <contour>
      <point x="622" y="34" type="curve" smooth="yes"/>
      <point x="422" y="34" type="line"/>
      <point x="487" y="341" type="line"/>
      <point x="679" y="341" type="line" smooth="yes"/>
      <point x="766" y="341"/>
      <point x="832" y="319"/>
      <point x="832" y="224" type="curve" smooth="yes"/>
      <point x="832" y="127"/>
      <point x="777" y="34"/>
    </contour>
    <contour>
      <point x="686" y="375" type="curve" smooth="yes"/>
      <point x="495" y="375" type="line"/>
      <point x="556" y="666" type="line"/>
      <point x="733" y="666" type="line" smooth="yes"/>
      <point x="827" y="666"/>
      <point x="873" y="633"/>
      <point x="873" y="556" type="curve" smooth="yes"/>
      <point x="873" y="482"/>
      <point x="832" y="375"/>
    </contour>
  </outline>
</glyph>
<glyph name="B.ss04" format="2">
  <advance width="1266"/>
  <note>
B.ss04
</note>
  <outline>
    <contour>
      <point x="731" y="700" type="curve" smooth="yes"/>
      <point x="529" y="700" type="line"/>
      <point x="380" y="0" type="line"/>
      <point x="615" y="0" type="line" smooth="yes"/>
      <point x="817" y="0"/>
      <point x="870" y="122"/>
      <point x="870" y="226" type="curve" smooth="yes"/>
      <point x="870" y="318"/>
      <point x="826" y="345"/>
      <point x="773" y="360" type="curve"/>
      <point x="880" y="386"/>
      <point x="911" y="499"/>
      <point x="911" y="567" type="curve" smooth="yes"/>
      <point x="911" y="656"/>
      <point x="844" y="700"/>
    </contour>
    <contour>
      <point x="30" y="207" type="curve" smooth="yes"/>
      <point x="30" y="580"/>
      <point x="347" y="938"/>
      <point x="773" y="938" type="curve" smooth="yes"/>
      <point x="1078" y="938"/>
      <point x="1272" y="747"/>
      <point x="1272" y="459" type="curve" smooth="yes"/>
      <point x="1272" y="85"/>
      <point x="948" y="-271"/>
      <point x="526" y="-271" type="curve" smooth="yes"/>
      <point x="227" y="-271"/>
      <point x="30" y="-86"/>
    </contour>
    <contour>
      <point x="622" y="34" type="curve" smooth="yes"/>
      <point x="422" y="34" type="line"/>
      <point x="487" y="341" type="line"/>
      <point x="679" y="341" type="line" smooth="yes"/>
      <point x="766" y="341"/>
      <point x="832" y="319"/>
      <point x="832" y="224" type="curve" smooth="yes"/>
      <point x="832" y="127"/>
      <point x="777" y="34"/>
    </contour>
    <contour>
      <point x="686" y="375" type="curve" smooth="yes"/>
      <point x="495" y="375" type="line"/>
      <point x="556" y="666" type="line"/>
      <point x="733" y="666" type="line" smooth="yes"/>
      <point x="827" y="666"/>
      <point x="873" y="633"/>
      <point x="873" y="556" type="curve" smooth="yes"/>
      <point x="873" y="482"/>
      <point x="832" y="375"/>
    </contour>
  </outline>
</glyph>
<glyph name="C.ss03" format="2">
  <advance width="1265"/>
  <note>
C.ss03
</note>
  <outline>
    <contour>
      <point x="525" y="-271" type="curve" smooth="yes"/>
      <point x="943" y="-271"/>
      <point x="1271" y="87"/>
      <point x="1271" y="459" type="curve" smooth="yes"/>
      <point x="1271" y="745"/>
      <point x="1074" y="938"/>
      <point x="772" y="938" type="curve" smooth="yes"/>
      <point x="350" y="938"/>
      <point x="29" y="577"/>
      <point x="29" y="207" type="curve" smooth="yes"/>
      <point x="29" y="-82"/>
      <point x="228" y="-271"/>
    </contour>
    <contour>
      <point x="69" y="211" type="curve" smooth="yes"/>
      <point x="69" y="567"/>
      <point x="380" y="902"/>
      <point x="770" y="902" type="curve" smooth="yes"/>
      <point x="1050" y="902"/>
      <point x="1231" y="731"/>
      <point x="1231" y="455" type="curve" smooth="yes"/>
      <point x="1231" y="100"/>
      <point x="916" y="-235"/>
      <point x="526" y="-235" type="curve" smooth="yes"/>
      <point x="246" y="-235"/>
      <point x="69" y="-64"/>
    </contour>
    <contour>
      <point x="383" y="202" type="curve" smooth="yes"/>
      <point x="383" y="35"/>
      <point x="445" y="-10"/>
      <point x="592" y="-10" type="curve" smooth="yes"/>
      <point x="655" y="-10"/>
      <point x="700" y="0"/>
      <point x="752" y="11" type="curve"/>
      <point x="756" y="45" type="line"/>
      <point x="702" y="34"/>
      <point x="649" y="24"/>
      <point x="590" y="24" type="curve" smooth="yes"/>
      <point x="464" y="24"/>
      <point x="421" y="67"/>
      <point x="421" y="200" type="curve" smooth="yes"/>
      <point x="421" y="374"/>
      <point x="488" y="676"/>
      <point x="734" y="676" type="curve" smooth="yes"/>
      <point x="780" y="676"/>
      <point x="845" y="665"/>
      <point x="886" y="656" type="curve"/>
      <point x="896" y="690" type="line"/>
      <point x="853" y="700"/>
      <point x="789" y="710"/>
      <point x="740" y="710" type="curve" smooth="yes"/>
      <point x="460" y="710"/>
      <point x="383" y="407"/>
    </contour>
  </outline>
</glyph>
<glyph name="C.ss04" format="2">
  <advance width="1266"/>
  <note>
C.ss04
</note>
  <outline>
    <contour>
      <point x="526" y="-271" type="curve" smooth="yes"/>
      <point x="227" y="-271"/>
      <point x="30" y="-86"/>
      <point x="30" y="207" type="curve" smooth="yes"/>
      <point x="30" y="580"/>
      <point x="347" y="938"/>
      <point x="773" y="938" type="curve" smooth="yes"/>
      <point x="1078" y="938"/>
      <point x="1272" y="747"/>
      <point x="1272" y="459" type="curve" smooth="yes"/>
      <point x="1272" y="85"/>
      <point x="948" y="-271"/>
    </contour>
    <contour>
      <point x="383" y="202" type="curve" smooth="yes"/>
      <point x="383" y="35"/>
      <point x="445" y="-10"/>
      <point x="592" y="-10" type="curve" smooth="yes"/>
      <point x="655" y="-10"/>
      <point x="700" y="0"/>
      <point x="752" y="11" type="curve"/>
      <point x="756" y="45" type="line"/>
      <point x="702" y="34"/>
      <point x="649" y="24"/>
      <point x="590" y="24" type="curve" smooth="yes"/>
      <point x="464" y="24"/>
      <point x="421" y="67"/>
      <point x="421" y="200" type="curve" smooth="yes"/>
      <point x="421" y="374"/>
      <point x="488" y="676"/>
      <point x="734" y="676" type="curve" smooth="yes"/>
      <point x="780" y="676"/>
      <point x="845" y="665"/>
      <point x="886" y="656" type="curve"/>
      <point x="896" y="690" type="line"/>
      <point x="853" y="700"/>
      <point x="789" y="710"/>
      <point x="740" y="710" type="curve" smooth="yes"/>
      <point x="460" y="710"/>
      <point x="383" y="407"/>
    </contour>
  </outline>
</glyph>
<glyph name="D.ss03" format="2">
  <advance width="1265"/>
  <note>
D.ss03
</note>
  <outline>
    <contour>
      <point x="525" y="-271" type="curve" smooth="yes"/>
      <point x="943" y="-271"/>
      <point x="1271" y="87"/>
      <point x="1271" y="459" type="curve" smooth="yes"/>
      <point x="1271" y="745"/>
      <point x="1074" y="938"/>
      <point x="772" y="938" type="curve" smooth="yes"/>
      <point x="350" y="938"/>
      <point x="29" y="577"/>
      <point x="29" y="207" type="curve" smooth="yes"/>
      <point x="29" y="-82"/>
      <point x="228" y="-271"/>
    </contour>
    <contour>
      <point x="69" y="211" type="curve" smooth="yes"/>
      <point x="69" y="567"/>
      <point x="380" y="902"/>
      <point x="770" y="902" type="curve" smooth="yes"/>
      <point x="1050" y="902"/>
      <point x="1231" y="731"/>
      <point x="1231" y="455" type="curve" smooth="yes"/>
      <point x="1231" y="100"/>
      <point x="916" y="-235"/>
      <point x="526" y="-235" type="curve" smooth="yes"/>
      <point x="246" y="-235"/>
      <point x="69" y="-64"/>
    </contour>
    <contour>
      <point x="521" y="700" type="line"/>
      <point x="372" y="0" type="line"/>
      <point x="606" y="0" type="line" smooth="yes"/>
      <point x="842" y="0"/>
      <point x="933" y="284"/>
      <point x="933" y="496" type="curve" smooth="yes"/>
      <point x="933" y="617"/>
      <point x="903" y="700"/>
      <point x="753" y="700" type="curve" smooth="yes"/>
    </contour>
    <contour>
      <point x="607" y="34" type="curve" smooth="yes"/>
      <point x="414" y="34" type="line"/>
      <point x="548" y="666" type="line"/>
      <point x="751" y="666" type="line" smooth="yes"/>
      <point x="879" y="666"/>
      <point x="895" y="592"/>
      <point x="895" y="500" type="curve" smooth="yes"/>
      <point x="895" y="304"/>
      <point x="809" y="34"/>
    </contour>
  </outline>
</glyph>
<glyph name="D.ss04" format="2">
  <advance width="1266"/>
  <note>
D.ss04
</note>
  <outline>
    <contour>
      <point x="526" y="-271" type="curve" smooth="yes"/>
      <point x="227" y="-271"/>
      <point x="30" y="-86"/>
      <point x="30" y="207" type="curve" smooth="yes"/>
      <point x="30" y="580"/>
      <point x="347" y="938"/>
      <point x="773" y="938" type="curve" smooth="yes"/>
      <point x="1078" y="938"/>
      <point x="1272" y="747"/>
      <point x="1272" y="459" type="curve" smooth="yes"/>
      <point x="1272" y="85"/>
      <point x="948" y="-271"/>
    </contour>
    <contour>
      <point x="521" y="700" type="line"/>
      <point x="372" y="0" type="line"/>
      <point x="606" y="0" type="line" smooth="yes"/>
      <point x="842" y="0"/>
      <point x="933" y="284"/>
      <point x="933" y="496" type="curve" smooth="yes"/>
      <point x="933" y="617"/>
      <point x="903" y="700"/>
      <point x="753" y="700" type="curve" smooth="yes"/>
    </contour>
    <contour>
      <point x="607" y="34" type="curve" smooth="yes"/>
      <point x="414" y="34" type="line"/>
      <point x="548" y="666" type="line"/>
      <point x="751" y="666" type="line" smooth="yes"/>
      <point x="879" y="666"/>
      <point x="895" y="592"/>
      <point x="895" y="500" type="curve" smooth="yes"/>
      <point x="895" y="304"/>
      <point x="809" y="34"/>
    </contour>
  </outline>
</glyph>
<glyph name="E.ss04" format="2">
  <advance width="1266"/>
  <note>
E.ss04
</note>
  <outline>
    <contour>
      <point x="904" y="666" type="line"/>
      <point x="912" y="700" type="line"/>
      <point x="522" y="700" type="line"/>
      <point x="373" y="0" type="line"/>
      <point x="763" y="0" type="line"/>
      <point x="770" y="34" type="line"/>
      <point x="415" y="34" type="line"/>
      <point x="480" y="341" type="line"/>
      <point x="775" y="341" type="line"/>
      <point x="782" y="375" type="line"/>
      <point x="488" y="375" type="line"/>
      <point x="550" y="666" type="line"/>
    </contour>
    <contour>
      <point x="30" y="207" type="curve" smooth="yes"/>
      <point x="30" y="580"/>
      <point x="347" y="938"/>
      <point x="773" y="938" type="curve" smooth="yes"/>
      <point x="1078" y="938"/>
      <point x="1272" y="747"/>
      <point x="1272" y="459" type="curve" smooth="yes"/>
      <point x="1272" y="85"/>
      <point x="948" y="-271"/>
      <point x="526" y="-271" type="curve" smooth="yes"/>
      <point x="227" y="-271"/>
      <point x="30" y="-86"/>
    </contour>
  </outline>
</glyph>
<glyph name="F.ss03" format="2">
  <advance width="1265"/>
  <note>
F.ss03
</note>
  <outline>
    <contour>
      <point x="525" y="-271" type="curve" smooth="yes"/>
      <point x="943" y="-271"/>
      <point x="1271" y="87"/>
      <point x="1271" y="459" type="curve" smooth="yes"/>
      <point x="1271" y="745"/>
      <point x="1074" y="938"/>
      <point x="772" y="938" type="curve" smooth="yes"/>
      <point x="350" y="938"/>
      <point x="29" y="577"/>
      <point x="29" y="207" type="curve" smooth="yes"/>
      <point x="29" y="-82"/>
      <point x="228" y="-271"/>
    </contour>
    <contour>
      <point x="69" y="211" type="curve" smooth="yes"/>
      <point x="69" y="567"/>
      <point x="380" y="902"/>
      <point x="770" y="902" type="curve" smooth="yes"/>
      <point x="1050" y="902"/>
      <point x="1231" y="731"/>
      <point x="1231" y="455" type="curve" smooth="yes"/>
      <point x="1231" y="100"/>
      <point x="916" y="-235"/>
      <point x="526" y="-235" type="curve" smooth="yes"/>
      <point x="246" y="-235"/>
      <point x="69" y="-64"/>
    </contour>
    <contour>
      <point x="551" y="700" type="line"/>
      <point x="402" y="0" type="line"/>
      <point x="437" y="0" type="line"/>
      <point x="504" y="316" type="line"/>
      <point x="792" y="316" type="line"/>
      <point x="799" y="350" type="line"/>
      <point x="512" y="350" type="line"/>
      <point x="579" y="666" type="line"/>
      <point x="917" y="666" type="line"/>
      <point x="925" y="700" type="line"/>
    </contour>
  </outline>
</glyph>
<glyph name="F.ss04" format="2">
  <advance width="1266"/>
  <note>
F.ss04
</note>
  <outline>
    <contour>
      <point x="917" y="666" type="line"/>
      <point x="925" y="700" type="line"/>
      <point x="551" y="700" type="line"/>
      <point x="402" y="0" type="line"/>
      <point x="437" y="0" type="line"/>
      <point x="504" y="316" type="line"/>
      <point x="792" y="316" type="line"/>
      <point x="799" y="350" type="line"/>
      <point x="512" y="350" type="line"/>
      <point x="579" y="666" type="line"/>
    </contour>
    <contour>
      <point x="30" y="207" type="curve" smooth="yes"/>
      <point x="30" y="580"/>
      <point x="347" y="938"/>
      <point x="773" y="938" type="curve" smooth="yes"/>
      <point x="1078" y="938"/>
      <point x="1272" y="747"/>
      <point x="1272" y="459" type="curve" smooth="yes"/>
      <point x="1272" y="85"/>
      <point x="948" y="-271"/>
      <point x="526" y="-271" type="curve" smooth="yes"/>
      <point x="227" y="-271"/>
      <point x="30" y="-86"/>
    </contour>
  </outline>
</glyph>
<glyph name="G.ss03" format="2">
  <advance width="1265"/>
  <note>
G.ss03
</note>
  <outline>
    <contour>
      <point x="525" y="-271" type="curve" smooth="yes"/>
      <point x="943" y="-271"/>
      <point x="1271" y="87"/>
      <point x="1271" y="459" type="curve" smooth="yes"/>
      <point x="1271" y="745"/>
      <point x="1074" y="938"/>
      <point x="772" y="938" type="curve" smooth="yes"/>
      <point x="350" y="938"/>
      <point x="29" y="577"/>
      <point x="29" y="207" type="curve" smooth="yes"/>
      <point x="29" y="-82"/>
      <point x="228" y="-271"/>
    </contour>
    <contour>
      <point x="69" y="211" type="curve" smooth="yes"/>
      <point x="69" y="567"/>
      <point x="380" y="902"/>
      <point x="770" y="902" type="curve" smooth="yes"/>
      <point x="1050" y="902"/>
      <point x="1231" y="731"/>
      <point x="1231" y="455" type="curve" smooth="yes"/>
      <point x="1231" y="100"/>
      <point x="916" y="-235"/>
      <point x="526" y="-235" type="curve" smooth="yes"/>
      <point x="246" y="-235"/>
      <point x="69" y="-64"/>
    </contour>
    <contour>
      <point x="366" y="189" type="curve" smooth="yes"/>
      <point x="366" y="57"/>
      <point x="417" y="-10"/>
      <point x="567" y="-10" type="curve" smooth="yes"/>
      <point x="644" y="-10"/>
      <point x="722" y="2"/>
      <point x="780" y="16" type="curve"/>
      <point x="850" y="347" type="line"/>
      <point x="665" y="347" type="line"/>
      <point x="658" y="313" type="line"/>
      <point x="808" y="313" type="line"/>
      <point x="751" y="44" type="line"/>
      <point x="715" y="33"/>
      <point x="633" y="24"/>
      <point x="571" y="24" type="curve" smooth="yes"/>
      <point x="444" y="24"/>
      <point x="404" y="77"/>
      <point x="404" y="189" type="curve" smooth="yes"/>
      <point x="404" y="375"/>
      <point x="480" y="676"/>
      <point x="707" y="676" type="curve" smooth="yes"/>
      <point x="798" y="676"/>
      <point x="913" y="650"/>
      <point x="913" y="650" type="curve"/>
      <point x="923" y="685" type="line"/>
      <point x="923" y="685"/>
      <point x="820" y="710"/>
      <point x="715" y="710" type="curve" smooth="yes"/>
      <point x="443" y="710"/>
      <point x="366" y="395"/>
    </contour>
  </outline>
</glyph>
<glyph name="G.ss04" format="2">
  <advance width="1266"/>
  <note>
G.ss04
</note>
  <outline>
    <contour>
      <point x="780" y="16" type="curve"/>
      <point x="850" y="347" type="line"/>
      <point x="665" y="347" type="line"/>
      <point x="658" y="313" type="line"/>
      <point x="808" y="313" type="line"/>
      <point x="751" y="44" type="line"/>
      <point x="715" y="33"/>
      <point x="633" y="24"/>
      <point x="571" y="24" type="curve" smooth="yes"/>
      <point x="444" y="24"/>
      <point x="404" y="77"/>
      <point x="404" y="189" type="curve" smooth="yes"/>
      <point x="404" y="375"/>
      <point x="480" y="676"/>
      <point x="707" y="676" type="curve" smooth="yes"/>
      <point x="798" y="676"/>
      <point x="913" y="650"/>
      <point x="913" y="650" type="curve"/>
      <point x="923" y="685" type="line"/>
      <point x="923" y="685"/>
      <point x="820" y="710"/>
      <point x="715" y="710" type="curve" smooth="yes"/>
      <point x="443" y="710"/>
      <point x="366" y="395"/>
      <point x="366" y="189" type="curve" smooth="yes"/>
      <point x="366" y="57"/>
      <point x="417" y="-10"/>
      <point x="567" y="-10" type="curve" smooth="yes"/>
      <point x="644" y="-10"/>
      <point x="722" y="2"/>
    </contour>
    <contour>
      <point x="30" y="207" type="curve" smooth="yes"/>
      <point x="30" y="580"/>
      <point x="347" y="938"/>
      <point x="773" y="938" type="curve" smooth="yes"/>
      <point x="1078" y="938"/>
      <point x="1272" y="747"/>
      <point x="1272" y="459" type="curve" smooth="yes"/>
      <point x="1272" y="85"/>
      <point x="948" y="-271"/>
      <point x="526" y="-271" type="curve" smooth="yes"/>
      <point x="227" y="-271"/>
      <point x="30" y="-86"/>
    </contour>
  </outline>
</glyph>
<glyph name="H.ss03" format="2">
  <advance width="1265"/>
  <note>
H.ss03
</note>
  <outline>
    <contour>
      <point x="525" y="-271" type="curve" smooth="yes"/>
      <point x="943" y="-271"/>
      <point x="1271" y="87"/>
      <point x="1271" y="459" type="curve" smooth="yes"/>
      <point x="1271" y="745"/>
      <point x="1074" y="938"/>
      <point x="772" y="938" type="curve" smooth="yes"/>
      <point x="350" y="938"/>
      <point x="29" y="577"/>
      <point x="29" y="207" type="curve" smooth="yes"/>
      <point x="29" y="-82"/>
      <point x="228" y="-271"/>
    </contour>
    <contour>
      <point x="69" y="211" type="curve" smooth="yes"/>
      <point x="69" y="567"/>
      <point x="380" y="902"/>
      <point x="770" y="902" type="curve" smooth="yes"/>
      <point x="1050" y="902"/>
      <point x="1231" y="731"/>
      <point x="1231" y="455" type="curve" smooth="yes"/>
      <point x="1231" y="100"/>
      <point x="916" y="-235"/>
      <point x="526" y="-235" type="curve" smooth="yes"/>
      <point x="246" y="-235"/>
      <point x="69" y="-64"/>
    </contour>
    <contour>
      <point x="493" y="700" type="line"/>
      <point x="344" y="0" type="line"/>
      <point x="379" y="0" type="line"/>
      <point x="451" y="339" type="line"/>
      <point x="839" y="339" type="line"/>
      <point x="767" y="0" type="line"/>
      <point x="802" y="0" type="line"/>
      <point x="951" y="700" type="line"/>
      <point x="916" y="700" type="line"/>
      <point x="847" y="373" type="line"/>
      <point x="458" y="373" type="line"/>
      <point x="528" y="700" type="line"/>
    </contour>
  </outline>
</glyph>
<glyph name="H.ss04" format="2">
  <advance width="1266"/>
  <note>
H.ss04
</note>
  <outline>
    <contour>
      <point x="526" y="-271" type="curve" smooth="yes"/>
      <point x="227" y="-271"/>
      <point x="30" y="-86"/>
      <point x="30" y="207" type="curve" smooth="yes"/>
      <point x="30" y="580"/>
      <point x="347" y="938"/>
      <point x="773" y="938" type="curve" smooth="yes"/>
      <point x="1078" y="938"/>
      <point x="1272" y="747"/>
      <point x="1272" y="459" type="curve" smooth="yes"/>
      <point x="1272" y="85"/>
      <point x="948" y="-271"/>
    </contour>
    <contour>
      <point x="493" y="700" type="line"/>
      <point x="344" y="0" type="line"/>
      <point x="379" y="0" type="line"/>
      <point x="451" y="339" type="line"/>
      <point x="839" y="339" type="line"/>
      <point x="767" y="0" type="line"/>
      <point x="802" y="0" type="line"/>
      <point x="951" y="700" type="line"/>
      <point x="916" y="700" type="line"/>
      <point x="847" y="373" type="line"/>
      <point x="458" y="373" type="line"/>
      <point x="528" y="700" type="line"/>
    </contour>
  </outline>
</glyph>
<glyph name="H.ss05" format="2">
  <advance width="1222"/>
  <note>
H.ss05
</note>
  <outline>
    <contour>
      <point x="-78" y="-230" type="line"/>
      <point x="164" y="904" type="line"/>
      <point x="1298" y="904" type="line"/>
      <point x="1056" y="-230" type="line"/>
    </contour>
    <contour>
      <point x="192" y="870" type="line"/>
      <point x="-34" y="-196" type="line"/>
      <point x="1028" y="-196" type="line"/>
      <point x="1254" y="870" type="line"/>
    </contour>
    <contour>
      <point x="460" y="700" type="line"/>
      <point x="311" y="0" type="line"/>
      <point x="346" y="0" type="line"/>
      <point x="418" y="339" type="line"/>
      <point x="806" y="339" type="line"/>
      <point x="734" y="0" type="line"/>
      <point x="769" y="0" type="line"/>
      <point x="918" y="700" type="line"/>
      <point x="883" y="700" type="line"/>
      <point x="814" y="373" type="line"/>
      <point x="425" y="373" type="line"/>
      <point x="495" y="700" type="line"/>
    </contour>
  </outline>
</glyph>
<glyph name="J.ss04" format="2">
  <advance width="1266"/>
  <note>
J.ss04
</note>
  <outline>
    <contour>
      <point x="649" y="114" type="curve" smooth="yes"/>
      <point x="774" y="700" type="line"/>
      <point x="739" y="700" type="line"/>
      <point x="616" y="124" type="line" smooth="yes"/>
      <point x="600" y="51"/>
      <point x="585" y="27"/>
      <point x="458" y="27" type="curve"/>
      <point x="451" y="-7" type="line"/>
      <point x="593" y="-7"/>
      <point x="628" y="16"/>
    </contour>
    <contour>
      <point x="30" y="207" type="curve" smooth="yes"/>
      <point x="30" y="580"/>
      <point x="347" y="938"/>
      <point x="773" y="938" type="curve" smooth="yes"/>
      <point x="1078" y="938"/>
      <point x="1272" y="747"/>
      <point x="1272" y="459" type="curve" smooth="yes"/>
      <point x="1272" y="85"/>
      <point x="948" y="-271"/>
      <point x="526" y="-271" type="curve" smooth="yes"/>
      <point x="227" y="-271"/>
      <point x="30" y="-86"/>
    </contour>
  </outline>
</glyph>
<glyph name="K.ss04" format="2">
  <advance width="1266"/>
  <note>
K.ss04
</note>
  <outline>
    <contour>
      <point x="424" y="0" type="line"/>
      <point x="494" y="329" type="line"/>
      <point x="621" y="329" type="line"/>
      <point x="791" y="0" type="line"/>
      <point x="830" y="0" type="line"/>
      <point x="649" y="348" type="line"/>
      <point x="940" y="700" type="line"/>
      <point x="897" y="700" type="line"/>
      <point x="620" y="363" type="line"/>
      <point x="501" y="363" type="line"/>
      <point x="573" y="700" type="line"/>
      <point x="538" y="700" type="line"/>
      <point x="389" y="0" type="line"/>
    </contour>
    <contour>
      <point x="30" y="207" type="curve" smooth="yes"/>
      <point x="30" y="580"/>
      <point x="347" y="938"/>
      <point x="773" y="938" type="curve" smooth="yes"/>
      <point x="1078" y="938"/>
      <point x="1272" y="747"/>
      <point x="1272" y="459" type="curve" smooth="yes"/>
      <point x="1272" y="85"/>
      <point x="948" y="-271"/>
      <point x="526" y="-271" type="curve" smooth="yes"/>
      <point x="227" y="-271"/>
      <point x="30" y="-86"/>
    </contour>
  </outline>
</glyph>
<glyph name="K.ss05" format="2">
  <advance width="1222"/>
  <note>
K.ss05
</note>
  <outline>
    <contour>
      <point x="-78" y="-230" type="line"/>
      <point x="164" y="904" type="line"/>
      <point x="1298" y="904" type="line"/>
      <point x="1056" y="-230" type="line"/>
    </contour>
    <contour>
      <point x="192" y="870" type="line"/>
      <point x="-34" y="-196" type="line"/>
      <point x="1028" y="-196" type="line"/>
      <point x="1254" y="870" type="line"/>
    </contour>
    <contour>
      <point x="510" y="700" type="line"/>
      <point x="361" y="0" type="line"/>
      <point x="396" y="0" type="line"/>
      <point x="466" y="329" type="line"/>
      <point x="593" y="329" type="line"/>
      <point x="763" y="0" type="line"/>
      <point x="802" y="0" type="line"/>
      <point x="621" y="348" type="line"/>
      <point x="912" y="700" type="line"/>
      <point x="869" y="700" type="line"/>
      <point x="592" y="363" type="line"/>
      <point x="473" y="363" type="line"/>
      <point x="545" y="700" type="line"/>
    </contour>
  </outline>
</glyph>
<glyph name="L.ss05" format="2">
  <advance width="1222"/>
  <note>
L.ss05
</note>
  <outline>
    <contour>
      <point x="-78" y="-230" type="line"/>
      <point x="164" y="904" type="line"/>
      <point x="1298" y="904" type="line"/>
      <point x="1056" y="-230" type="line"/>
    </contour>
    <contour>
      <point x="192" y="870" type="line"/>
      <point x="-34" y="-196" type="line"/>
      <point x="1028" y="-196" type="line"/>
      <point x="1254" y="870" type="line"/>
    </contour>
    <contour>
      <point x="534" y="700" type="line"/>
      <point x="385" y="0" type="line"/>
      <point x="731" y="0" type="line"/>
      <point x="738" y="34" type="line"/>
      <point x="427" y="34" type="line"/>
      <point x="569" y="700" type="line"/>
    </contour>
  </outline>
</glyph>
<glyph name="M.ss04" format="2">
  <advance width="1266"/>
  <note>
M.ss04
</note>
  <outline>
    <contour>
      <point x="585" y="37" type="line"/>
      <point x="508" y="700" type="line"/>
      <point x="421" y="700" type="line"/>
      <point x="272" y="0" type="line"/>
      <point x="307" y="0" type="line"/>
      <point x="448" y="666" type="line"/>
      <point x="478" y="666" type="line"/>
      <point x="556" y="0" type="line"/>
      <point x="601" y="0" type="line"/>
      <point x="960" y="666" type="line"/>
      <point x="990" y="666" type="line"/>
      <point x="848" y="0" type="line"/>
      <point x="883" y="0" type="line"/>
      <point x="1032" y="700" type="line"/>
      <point x="941" y="700" type="line"/>
    </contour>
    <contour>
      <point x="30" y="207" type="curve" smooth="yes"/>
      <point x="30" y="580"/>
      <point x="347" y="938"/>
      <point x="773" y="938" type="curve" smooth="yes"/>
      <point x="1078" y="938"/>
      <point x="1272" y="747"/>
      <point x="1272" y="459" type="curve" smooth="yes"/>
      <point x="1272" y="85"/>
      <point x="948" y="-271"/>
      <point x="526" y="-271" type="curve" smooth="yes"/>
      <point x="227" y="-271"/>
      <point x="30" y="-86"/>
    </contour>
  </outline>
</glyph>
<glyph name="O.ss03" format="2">
  <advance width="1265"/>
  <note>
O.ss03
</note>
  <outline>
    <contour>
      <point x="525" y="-271" type="curve" smooth="yes"/>
      <point x="943" y="-271"/>
      <point x="1271" y="87"/>
      <point x="1271" y="459" type="curve" smooth="yes"/>
      <point x="1271" y="745"/>
      <point x="1074" y="938"/>
      <point x="772" y="938" type="curve" smooth="yes"/>
      <point x="350" y="938"/>
      <point x="29" y="577"/>
      <point x="29" y="207" type="curve" smooth="yes"/>
      <point x="29" y="-82"/>
      <point x="228" y="-271"/>
    </contour>
    <contour>
      <point x="69" y="211" type="curve" smooth="yes"/>
      <point x="69" y="567"/>
      <point x="380" y="902"/>
      <point x="770" y="902" type="curve" smooth="yes"/>
      <point x="1050" y="902"/>
      <point x="1231" y="731"/>
      <point x="1231" y="455" type="curve" smooth="yes"/>
      <point x="1231" y="100"/>
      <point x="916" y="-235"/>
      <point x="526" y="-235" type="curve" smooth="yes"/>
      <point x="246" y="-235"/>
      <point x="69" y="-64"/>
    </contour>
    <contour>
      <point x="371" y="208" type="curve" smooth="yes"/>
      <point x="371" y="48"/>
      <point x="448" y="-8"/>
      <point x="580" y="-8" type="curve" smooth="yes"/>
      <point x="825" y="-8"/>
      <point x="925" y="267"/>
      <point x="925" y="495" type="curve" smooth="yes"/>
      <point x="925" y="666"/>
      <point x="836" y="707"/>
      <point x="714" y="707" type="curve" smooth="yes"/>
      <point x="467" y="707"/>
      <point x="371" y="435"/>
    </contour>
    <contour>
      <point x="408" y="194" type="curve" smooth="yes"/>
      <point x="408" y="365"/>
      <point x="476" y="673"/>
      <point x="711" y="673" type="curve" smooth="yes"/>
      <point x="814" y="673"/>
      <point x="889" y="639"/>
      <point x="889" y="507" type="curve" smooth="yes"/>
      <point x="889" y="337"/>
      <point x="817" y="27"/>
      <point x="583" y="27" type="curve" smooth="yes"/>
      <point x="491" y="27"/>
      <point x="408" y="62"/>
    </contour>
  </outline>
</glyph>
<glyph name="O.ss04" format="2">
  <advance width="1266"/>
  <note>
O.ss04
</note>
  <outline>
    <contour>
      <point x="580" y="-8" type="curve" smooth="yes"/>
      <point x="825" y="-8"/>
      <point x="925" y="267"/>
      <point x="925" y="495" type="curve" smooth="yes"/>
      <point x="925" y="666"/>
      <point x="836" y="707"/>
      <point x="714" y="707" type="curve" smooth="yes"/>
      <point x="467" y="707"/>
      <point x="371" y="435"/>
      <point x="371" y="208" type="curve" smooth="yes"/>
      <point x="371" y="48"/>
      <point x="448" y="-8"/>
    </contour>
    <contour>
      <point x="30" y="207" type="curve" smooth="yes"/>
      <point x="30" y="580"/>
      <point x="347" y="938"/>
      <point x="773" y="938" type="curve" smooth="yes"/>
      <point x="1078" y="938"/>
      <point x="1272" y="747"/>
      <point x="1272" y="459" type="curve" smooth="yes"/>
      <point x="1272" y="85"/>
      <point x="948" y="-271"/>
      <point x="526" y="-271" type="curve" smooth="yes"/>
      <point x="227" y="-271"/>
      <point x="30" y="-86"/>
    </contour>
    <contour>
      <point x="408" y="194" type="curve" smooth="yes"/>
      <point x="408" y="365"/>
      <point x="476" y="673"/>
      <point x="711" y="673" type="curve" smooth="yes"/>
      <point x="814" y="673"/>
      <point x="889" y="639"/>
      <point x="889" y="507" type="curve" smooth="yes"/>
      <point x="889" y="337"/>
      <point x="817" y="27"/>
      <point x="583" y="27" type="curve" smooth="yes"/>
      <point x="491" y="27"/>
      <point x="408" y="62"/>
    </contour>
  </outline>
</glyph>
<glyph name="P.ss03" format="2">
  <advance width="1265"/>
  <note>
P.ss03
</note>
  <outline>
    <contour>
      <point x="525" y="-271" type="curve" smooth="yes"/>
      <point x="943" y="-271"/>
      <point x="1271" y="87"/>
      <point x="1271" y="459" type="curve" smooth="yes"/>
      <point x="1271" y="745"/>
      <point x="1074" y="938"/>
      <point x="772" y="938" type="curve" smooth="yes"/>
      <point x="350" y="938"/>
      <point x="29" y="577"/>
      <point x="29" y="207" type="curve" smooth="yes"/>
      <point x="29" y="-82"/>
      <point x="228" y="-271"/>
    </contour>
    <contour>
      <point x="69" y="211" type="curve" smooth="yes"/>
      <point x="69" y="567"/>
      <point x="380" y="902"/>
      <point x="770" y="902" type="curve" smooth="yes"/>
      <point x="1050" y="902"/>
      <point x="1231" y="731"/>
      <point x="1231" y="455" type="curve" smooth="yes"/>
      <point x="1231" y="100"/>
      <point x="916" y="-235"/>
      <point x="526" y="-235" type="curve" smooth="yes"/>
      <point x="246" y="-235"/>
      <point x="69" y="-64"/>
    </contour>
    <contour>
      <point x="538" y="700" type="line"/>
      <point x="389" y="0" type="line"/>
      <point x="424" y="0" type="line"/>
      <point x="478" y="257" type="line"/>
      <point x="672" y="257" type="line" smooth="yes"/>
      <point x="851" y="257"/>
      <point x="932" y="400"/>
      <point x="932" y="551" type="curve" smooth="yes"/>
      <point x="932" y="651"/>
      <point x="869" y="700"/>
      <point x="762" y="700" type="curve" smooth="yes"/>
    </contour>
    <contour>
      <point x="676" y="291" type="curve" smooth="yes"/>
      <point x="486" y="291" type="line"/>
      <point x="565" y="666" type="line"/>
      <point x="757" y="666" type="line" smooth="yes"/>
      <point x="854" y="666"/>
      <point x="894" y="624"/>
      <point x="894" y="541" type="curve" smooth="yes"/>
      <point x="894" y="433"/>
      <point x="834" y="291"/>
    </contour>
  </outline>
</glyph>
<glyph name="P.ss04" format="2">
  <advance width="1266"/>
  <note>
P.ss04
</note>
  <outline>
    <contour>
      <point x="389" y="0" type="line"/>
      <point x="424" y="0" type="line"/>
      <point x="478" y="257" type="line"/>
      <point x="672" y="257" type="line" smooth="yes"/>
      <point x="851" y="257"/>
      <point x="932" y="400"/>
      <point x="932" y="551" type="curve" smooth="yes"/>
      <point x="932" y="651"/>
      <point x="869" y="700"/>
      <point x="762" y="700" type="curve" smooth="yes"/>
      <point x="538" y="700" type="line"/>
    </contour>
    <contour>
      <point x="30" y="207" type="curve" smooth="yes"/>
      <point x="30" y="580"/>
      <point x="347" y="938"/>
      <point x="773" y="938" type="curve" smooth="yes"/>
      <point x="1078" y="938"/>
      <point x="1272" y="747"/>
      <point x="1272" y="459" type="curve" smooth="yes"/>
      <point x="1272" y="85"/>
      <point x="948" y="-271"/>
      <point x="526" y="-271" type="curve" smooth="yes"/>
      <point x="227" y="-271"/>
      <point x="30" y="-86"/>
    </contour>
    <contour>
      <point x="676" y="291" type="curve" smooth="yes"/>
      <point x="486" y="291" type="line"/>
      <point x="565" y="666" type="line"/>
      <point x="757" y="666" type="line" smooth="yes"/>
      <point x="854" y="666"/>
      <point x="894" y="624"/>
      <point x="894" y="541" type="curve" smooth="yes"/>
      <point x="894" y="433"/>
      <point x="834" y="291"/>
    </contour>
  </outline>
</glyph>
<glyph name="Q.ss03" format="2">
  <advance width="1265"/>
  <note>
Q.ss03
</note>
  <outline>
    <contour>
      <point x="584" y="27" type="curve" smooth="yes"/>
      <point x="456" y="27"/>
      <point x="410" y="93"/>
      <point x="410" y="201" type="curve" smooth="yes"/>
      <point x="410" y="359"/>
      <point x="474" y="673"/>
      <point x="718" y="673" type="curve" smooth="yes"/>
      <point x="847" y="673"/>
      <point x="891" y="606"/>
      <point x="891" y="508" type="curve" smooth="yes"/>
      <point x="891" y="223"/>
      <point x="773" y="27"/>
    </contour>
    <contour>
      <point x="29" y="207" type="curve" smooth="yes"/>
      <point x="29" y="-82"/>
      <point x="228" y="-271"/>
      <point x="525" y="-271" type="curve" smooth="yes"/>
      <point x="943" y="-271"/>
      <point x="1271" y="87"/>
      <point x="1271" y="459" type="curve" smooth="yes"/>
      <point x="1271" y="745"/>
      <point x="1074" y="938"/>
      <point x="772" y="938" type="curve" smooth="yes"/>
      <point x="350" y="938"/>
      <point x="29" y="577"/>
    </contour>
    <contour>
      <point x="69" y="211" type="curve" smooth="yes"/>
      <point x="69" y="567"/>
      <point x="380" y="902"/>
      <point x="770" y="902" type="curve" smooth="yes"/>
      <point x="1050" y="902"/>
      <point x="1231" y="731"/>
      <point x="1231" y="455" type="curve" smooth="yes"/>
      <point x="1231" y="100"/>
      <point x="916" y="-235"/>
      <point x="526" y="-235" type="curve" smooth="yes"/>
      <point x="246" y="-235"/>
      <point x="69" y="-64"/>
    </contour>
    <contour>
      <point x="373" y="204" type="curve" smooth="yes"/>
      <point x="373" y="75"/>
      <point x="427" y="-8"/>
      <point x="580" y="-8" type="curve" smooth="yes"/>
      <point x="622" y="-8"/>
      <point x="652" y="-4"/>
      <point x="684" y="7" type="curve"/>
      <point x="738" y="-116" type="line"/>
      <point x="773" y="-99" type="line"/>
      <point x="718" y="25" type="line"/>
      <point x="846" y="85"/>
      <point x="927" y="277"/>
      <point x="927" y="494" type="curve" smooth="yes"/>
      <point x="927" y="620"/>
      <point x="877" y="708"/>
      <point x="725" y="708" type="curve" smooth="yes"/>
      <point x="450" y="708"/>
      <point x="373" y="404"/>
    </contour>
  </outline>
</glyph>
<glyph name="Q.ss04" format="2">
  <advance width="1266"/>
  <note>
Q.ss04
</note>
  <outline>
    <contour>
      <point x="579" y="-8" type="curve" smooth="yes"/>
      <point x="612" y="-8"/>
      <point x="643" y="-5"/>
      <point x="681" y="6" type="curve"/>
      <point x="735" y="-116" type="line"/>
      <point x="770" y="-99" type="line"/>
      <point x="715" y="25" type="line"/>
      <point x="862" y="97"/>
      <point x="924" y="309"/>
      <point x="924" y="495" type="curve" smooth="yes"/>
      <point x="924" y="666"/>
      <point x="835" y="707"/>
      <point x="713" y="707" type="curve" smooth="yes"/>
      <point x="466" y="707"/>
      <point x="370" y="435"/>
      <point x="370" y="208" type="curve" smooth="yes"/>
      <point x="370" y="48"/>
      <point x="447" y="-8"/>
    </contour>
    <contour>
      <point x="30" y="207" type="curve" smooth="yes"/>
      <point x="30" y="580"/>
      <point x="347" y="938"/>
      <point x="773" y="938" type="curve" smooth="yes"/>
      <point x="1078" y="938"/>
      <point x="1272" y="747"/>
      <point x="1272" y="459" type="curve" smooth="yes"/>
      <point x="1272" y="85"/>
      <point x="948" y="-271"/>
      <point x="526" y="-271" type="curve" smooth="yes"/>
      <point x="227" y="-271"/>
      <point x="30" y="-86"/>
    </contour>
    <contour>
      <point x="407" y="194" type="curve" smooth="yes"/>
      <point x="407" y="365"/>
      <point x="475" y="673"/>
      <point x="710" y="673" type="curve" smooth="yes"/>
      <point x="813" y="673"/>
      <point x="888" y="639"/>
      <point x="888" y="505" type="curve" smooth="yes"/>
      <point x="888" y="307"/>
      <point x="816" y="27"/>
      <point x="582" y="27" type="curve" smooth="yes"/>
      <point x="490" y="27"/>
      <point x="407" y="62"/>
    </contour>
  </outline>
</glyph>
<glyph name="R.ss03" format="2">
  <advance width="1265"/>
  <note>
R.ss03
</note>
  <outline>
    <contour>
      <point x="525" y="-271" type="curve" smooth="yes"/>
      <point x="943" y="-271"/>
      <point x="1271" y="87"/>
      <point x="1271" y="459" type="curve" smooth="yes"/>
      <point x="1271" y="745"/>
      <point x="1074" y="938"/>
      <point x="772" y="938" type="curve" smooth="yes"/>
      <point x="350" y="938"/>
      <point x="29" y="577"/>
      <point x="29" y="207" type="curve" smooth="yes"/>
      <point x="29" y="-82"/>
      <point x="228" y="-271"/>
    </contour>
    <contour>
      <point x="69" y="211" type="curve" smooth="yes"/>
      <point x="69" y="567"/>
      <point x="380" y="902"/>
      <point x="770" y="902" type="curve" smooth="yes"/>
      <point x="1050" y="902"/>
      <point x="1231" y="731"/>
      <point x="1231" y="455" type="curve" smooth="yes"/>
      <point x="1231" y="100"/>
      <point x="916" y="-235"/>
      <point x="526" y="-235" type="curve" smooth="yes"/>
      <point x="246" y="-235"/>
      <point x="69" y="-64"/>
    </contour>
    <contour>
      <point x="523" y="700" type="line"/>
      <point x="374" y="0" type="line"/>
      <point x="409" y="0" type="line"/>
      <point x="470" y="290" type="line"/>
      <point x="694" y="290" type="line"/>
      <point x="787" y="0" type="line"/>
      <point x="824" y="0" type="line"/>
      <point x="728" y="295" type="line"/>
      <point x="883" y="321"/>
      <point x="917" y="465"/>
      <point x="917" y="556" type="curve" smooth="yes"/>
      <point x="917" y="649"/>
      <point x="857" y="700"/>
      <point x="742" y="700" type="curve" smooth="yes"/>
    </contour>
    <contour>
      <point x="675" y="324" type="curve" smooth="yes"/>
      <point x="478" y="324" type="line"/>
      <point x="550" y="666" type="line"/>
      <point x="744" y="666" type="line" smooth="yes"/>
      <point x="840" y="666"/>
      <point x="878" y="623"/>
      <point x="878" y="547" type="curve" smooth="yes"/>
      <point x="878" y="449"/>
      <point x="839" y="324"/>
    </contour>
  </outline>
</glyph>
<glyph name="R.ss04" format="2">
  <advance width="1266"/>
  <note>
R.ss04
</note>
  <outline>
    <contour>
      <point x="373" y="0" type="line"/>
      <point x="408" y="0" type="line"/>
      <point x="469" y="290" type="line"/>
      <point x="693" y="290" type="line"/>
      <point x="786" y="0" type="line"/>
      <point x="823" y="0" type="line"/>
      <point x="727" y="295" type="line"/>
      <point x="882" y="321"/>
      <point x="916" y="465"/>
      <point x="916" y="556" type="curve" smooth="yes"/>
      <point x="916" y="649"/>
      <point x="856" y="700"/>
      <point x="741" y="700" type="curve" smooth="yes"/>
      <point x="522" y="700" type="line"/>
    </contour>
    <contour>
      <point x="30" y="207" type="curve" smooth="yes"/>
      <point x="30" y="580"/>
      <point x="347" y="938"/>
      <point x="773" y="938" type="curve" smooth="yes"/>
      <point x="1078" y="938"/>
      <point x="1272" y="747"/>
      <point x="1272" y="459" type="curve" smooth="yes"/>
      <point x="1272" y="85"/>
      <point x="948" y="-271"/>
      <point x="526" y="-271" type="curve" smooth="yes"/>
      <point x="227" y="-271"/>
      <point x="30" y="-86"/>
    </contour>
    <contour>
      <point x="674" y="324" type="curve" smooth="yes"/>
      <point x="477" y="324" type="line"/>
      <point x="549" y="666" type="line"/>
      <point x="743" y="666" type="line" smooth="yes"/>
      <point x="839" y="666"/>
      <point x="877" y="623"/>
      <point x="877" y="547" type="curve" smooth="yes"/>
      <point x="877" y="449"/>
      <point x="838" y="324"/>
    </contour>
  </outline>
</glyph>
<glyph name="S.ss03" format="2">
  <advance width="1265"/>
  <note>
S.ss03
</note>
  <outline>
    <contour>
      <point x="525" y="-271" type="curve" smooth="yes"/>
      <point x="943" y="-271"/>
      <point x="1271" y="87"/>
      <point x="1271" y="459" type="curve" smooth="yes"/>
      <point x="1271" y="745"/>
      <point x="1074" y="938"/>
      <point x="772" y="938" type="curve" smooth="yes"/>
      <point x="350" y="938"/>
      <point x="29" y="577"/>
      <point x="29" y="207" type="curve" smooth="yes"/>
      <point x="29" y="-82"/>
      <point x="228" y="-271"/>
    </contour>
    <contour>
      <point x="69" y="211" type="curve" smooth="yes"/>
      <point x="69" y="567"/>
      <point x="380" y="902"/>
      <point x="770" y="902" type="curve" smooth="yes"/>
      <point x="1050" y="902"/>
      <point x="1231" y="731"/>
      <point x="1231" y="455" type="curve" smooth="yes"/>
      <point x="1231" y="100"/>
      <point x="916" y="-235"/>
      <point x="526" y="-235" type="curve" smooth="yes"/>
      <point x="246" y="-235"/>
      <point x="69" y="-64"/>
    </contour>
    <contour>
      <point x="385" y="43" type="curve"/>
      <point x="374" y="9" type="line"/>
      <point x="374" y="9"/>
      <point x="501" y="-10"/>
      <point x="576" y="-10" type="curve" smooth="yes"/>
      <point x="765" y="-10"/>
      <point x="829" y="107"/>
      <point x="829" y="227" type="curve" smooth="yes"/>
      <point x="829" y="307"/>
      <point x="788" y="350"/>
      <point x="704" y="370" type="curve" smooth="yes"/>
      <point x="616" y="391" type="line" smooth="yes"/>
      <point x="549" y="407"/>
      <point x="514" y="430"/>
      <point x="514" y="502" type="curve" smooth="yes"/>
      <point x="514" y="592"/>
      <point x="566" y="676"/>
      <point x="688" y="676" type="curve" smooth="yes"/>
      <point x="766" y="676"/>
      <point x="887" y="660"/>
      <point x="887" y="660" type="curve"/>
      <point x="898" y="694" type="line"/>
      <point x="898" y="694"/>
      <point x="784" y="710"/>
      <point x="705" y="710" type="curve" smooth="yes"/>
      <point x="546" y="710"/>
      <point x="478" y="609"/>
      <point x="478" y="501" type="curve" smooth="yes"/>
      <point x="478" y="407"/>
      <point x="531" y="375"/>
      <point x="609" y="356" type="curve" smooth="yes"/>
      <point x="700" y="334" type="line" smooth="yes"/>
      <point x="769" y="317"/>
      <point x="793" y="281"/>
      <point x="793" y="219" type="curve" smooth="yes"/>
      <point x="793" y="139"/>
      <point x="748" y="24"/>
      <point x="583" y="24" type="curve" smooth="yes"/>
      <point x="512" y="24"/>
      <point x="385" y="43"/>
    </contour>
  </outline>
</glyph>
<glyph name="S.ss04" format="2">
  <advance width="1266"/>
  <note>
S.ss04
</note>
  <outline>
    <contour>
      <point x="887" y="660" type="curve"/>
      <point x="898" y="694" type="line"/>
      <point x="898" y="694"/>
      <point x="784" y="710"/>
      <point x="705" y="710" type="curve" smooth="yes"/>
      <point x="546" y="710"/>
      <point x="478" y="609"/>
      <point x="478" y="501" type="curve" smooth="yes"/>
      <point x="478" y="407"/>
      <point x="531" y="375"/>
      <point x="609" y="356" type="curve" smooth="yes"/>
      <point x="700" y="334" type="line" smooth="yes"/>
      <point x="769" y="317"/>
      <point x="793" y="281"/>
      <point x="793" y="219" type="curve" smooth="yes"/>
      <point x="793" y="139"/>
      <point x="748" y="24"/>
      <point x="583" y="24" type="curve" smooth="yes"/>
      <point x="512" y="24"/>
      <point x="385" y="43"/>
      <point x="385" y="43" type="curve"/>
      <point x="374" y="9" type="line"/>
      <point x="374" y="9"/>
      <point x="501" y="-10"/>
      <point x="576" y="-10" type="curve" smooth="yes"/>
      <point x="765" y="-10"/>
      <point x="829" y="107"/>
      <point x="829" y="227" type="curve" smooth="yes"/>
      <point x="829" y="307"/>
      <point x="788" y="350"/>
      <point x="704" y="370" type="curve" smooth="yes"/>
      <point x="616" y="391" type="line" smooth="yes"/>
      <point x="549" y="407"/>
      <point x="514" y="430"/>
      <point x="514" y="502" type="curve" smooth="yes"/>
      <point x="514" y="592"/>
      <point x="566" y="676"/>
      <point x="688" y="676" type="curve" smooth="yes"/>
      <point x="766" y="676"/>
      <point x="887" y="660"/>
    </contour>
    <contour>
      <point x="30" y="207" type="curve" smooth="yes"/>
      <point x="30" y="580"/>
      <point x="347" y="938"/>
      <point x="773" y="938" type="curve" smooth="yes"/>
      <point x="1078" y="938"/>
      <point x="1272" y="747"/>
      <point x="1272" y="459" type="curve" smooth="yes"/>
      <point x="1272" y="85"/>
      <point x="948" y="-271"/>
      <point x="526" y="-271" type="curve" smooth="yes"/>
      <point x="227" y="-271"/>
      <point x="30" y="-86"/>
    </contour>
  </outline>
</glyph>
<glyph name="T.ss05" format="2">
  <advance width="1222"/>
  <note>
T.ss05
</note>
  <outline>
    <contour>
      <point x="-78" y="-230" type="line"/>
      <point x="164" y="904" type="line"/>
      <point x="1298" y="904" type="line"/>
      <point x="1056" y="-230" type="line"/>
    </contour>
    <contour>
      <point x="192" y="870" type="line"/>
      <point x="-34" y="-196" type="line"/>
      <point x="1028" y="-196" type="line"/>
      <point x="1254" y="870" type="line"/>
    </contour>
    <contour>
      <point x="456" y="700" type="line"/>
      <point x="448" y="666" type="line"/>
      <point x="678" y="666" type="line"/>
      <point x="537" y="0" type="line"/>
      <point x="572" y="0" type="line"/>
      <point x="713" y="666" type="line"/>
      <point x="943" y="666" type="line"/>
      <point x="951" y="700" type="line"/>
    </contour>
  </outline>
</glyph>
<glyph name="U.ss03" format="2">
  <advance width="1265"/>
  <note>
U.ss03
</note>
  <outline>
    <contour>
      <point x="525" y="-271" type="curve" smooth="yes"/>
      <point x="943" y="-271"/>
      <point x="1271" y="87"/>
      <point x="1271" y="459" type="curve" smooth="yes"/>
      <point x="1271" y="745"/>
      <point x="1074" y="938"/>
      <point x="772" y="938" type="curve" smooth="yes"/>
      <point x="350" y="938"/>
      <point x="29" y="577"/>
      <point x="29" y="207" type="curve" smooth="yes"/>
      <point x="29" y="-82"/>
      <point x="228" y="-271"/>
    </contour>
    <contour>
      <point x="69" y="211" type="curve" smooth="yes"/>
      <point x="69" y="567"/>
      <point x="380" y="902"/>
      <point x="770" y="902" type="curve" smooth="yes"/>
      <point x="1050" y="902"/>
      <point x="1231" y="731"/>
      <point x="1231" y="455" type="curve" smooth="yes"/>
      <point x="1231" y="100"/>
      <point x="916" y="-235"/>
      <point x="526" y="-235" type="curve" smooth="yes"/>
      <point x="246" y="-235"/>
      <point x="69" y="-64"/>
    </contour>
    <contour>
      <point x="503" y="700" type="line"/>
      <point x="395" y="196" type="line" smooth="yes"/>
      <point x="364" y="51"/>
      <point x="449" y="-10"/>
      <point x="591" y="-10" type="curve" smooth="yes"/>
      <point x="734" y="-10"/>
      <point x="802" y="41"/>
      <point x="835" y="196" type="curve" smooth="yes"/>
      <point x="943" y="700" type="line"/>
      <point x="908" y="700" type="line"/>
      <point x="800" y="196" type="line" smooth="yes"/>
      <point x="773" y="69"/>
      <point x="712" y="24"/>
      <point x="590" y="24" type="curve" smooth="yes"/>
      <point x="465" y="24"/>
      <point x="403" y="70"/>
      <point x="430" y="196" type="curve" smooth="yes"/>
      <point x="538" y="700" type="line"/>
    </contour>
  </outline>
</glyph>
<glyph name="U.ss04" format="2">
  <advance width="1266"/>
  <note>
U.ss04
</note>
  <outline>
    <contour>
      <point x="430" y="196" type="curve" smooth="yes"/>
      <point x="538" y="700" type="line"/>
      <point x="503" y="700" type="line"/>
      <point x="395" y="196" type="line" smooth="yes"/>
      <point x="364" y="51"/>
      <point x="449" y="-10"/>
      <point x="591" y="-10" type="curve" smooth="yes"/>
      <point x="734" y="-10"/>
      <point x="802" y="41"/>
      <point x="835" y="196" type="curve" smooth="yes"/>
      <point x="943" y="700" type="line"/>
      <point x="908" y="700" type="line"/>
      <point x="800" y="196" type="line" smooth="yes"/>
      <point x="773" y="69"/>
      <point x="712" y="24"/>
      <point x="590" y="24" type="curve" smooth="yes"/>
      <point x="465" y="24"/>
      <point x="403" y="70"/>
    </contour>
    <contour>
      <point x="30" y="207" type="curve" smooth="yes"/>
      <point x="30" y="580"/>
      <point x="347" y="938"/>
      <point x="773" y="938" type="curve" smooth="yes"/>
      <point x="1078" y="938"/>
      <point x="1272" y="747"/>
      <point x="1272" y="459" type="curve" smooth="yes"/>
      <point x="1272" y="85"/>
      <point x="948" y="-271"/>
      <point x="526" y="-271" type="curve" smooth="yes"/>
      <point x="227" y="-271"/>
      <point x="30" y="-86"/>
    </contour>
  </outline>
</glyph>
<glyph name="V.ss04" format="2">
  <advance width="1266"/>
  <note>
V.ss04
</note>
  <outline>
    <contour>
      <point x="544" y="0" type="line"/>
      <point x="625" y="0" type="line"/>
      <point x="973" y="700" type="line"/>
      <point x="937" y="700" type="line"/>
      <point x="605" y="34" type="line"/>
      <point x="575" y="34" type="line"/>
      <point x="519" y="700" type="line"/>
      <point x="485" y="700" type="line"/>
    </contour>
    <contour>
      <point x="30" y="207" type="curve" smooth="yes"/>
      <point x="30" y="580"/>
      <point x="347" y="938"/>
      <point x="773" y="938" type="curve" smooth="yes"/>
      <point x="1078" y="938"/>
      <point x="1272" y="747"/>
      <point x="1272" y="459" type="curve" smooth="yes"/>
      <point x="1272" y="85"/>
      <point x="948" y="-271"/>
      <point x="526" y="-271" type="curve" smooth="yes"/>
      <point x="227" y="-271"/>
      <point x="30" y="-86"/>
    </contour>
  </outline>
</glyph>
<glyph name="V.ss05" format="2">
  <advance width="1222"/>
  <note>
V.ss05
</note>
  <outline>
    <contour>
      <point x="-78" y="-230" type="line"/>
      <point x="164" y="904" type="line"/>
      <point x="1298" y="904" type="line"/>
      <point x="1056" y="-230" type="line"/>
    </contour>
    <contour>
      <point x="192" y="870" type="line"/>
      <point x="-34" y="-196" type="line"/>
      <point x="1028" y="-196" type="line"/>
      <point x="1254" y="870" type="line"/>
    </contour>
    <contour>
      <point x="484" y="700" type="line"/>
      <point x="450" y="700" type="line"/>
      <point x="509" y="0" type="line"/>
      <point x="590" y="0" type="line"/>
      <point x="938" y="700" type="line"/>
      <point x="902" y="700" type="line"/>
      <point x="570" y="34" type="line"/>
      <point x="540" y="34" type="line"/>
    </contour>
  </outline>
</glyph>
<glyph name="W.ss03" format="2">
  <advance width="1265"/>
  <note>
W.ss03
</note>
  <outline>
    <contour>
      <point x="401" y="34" type="line"/>
      <point x="426" y="700" type="line"/>
      <point x="393" y="700" type="line"/>
      <point x="367" y="0" type="line"/>
      <point x="449" y="0" type="line"/>
      <point x="726" y="641" type="line"/>
      <point x="733" y="0" type="line"/>
      <point x="812" y="0" type="line"/>
      <point x="1083" y="700" type="line"/>
      <point x="1050" y="700" type="line"/>
      <point x="793" y="34" type="line"/>
      <point x="764" y="34" type="line"/>
      <point x="757" y="690" type="line"/>
      <point x="714" y="690" type="line"/>
      <point x="430" y="34" type="line"/>
    </contour>
    <contour>
      <point x="29" y="207" type="curve" smooth="yes"/>
      <point x="29" y="-82"/>
      <point x="228" y="-271"/>
      <point x="525" y="-271" type="curve" smooth="yes"/>
      <point x="943" y="-271"/>
      <point x="1271" y="87"/>
      <point x="1271" y="459" type="curve" smooth="yes"/>
      <point x="1271" y="745"/>
      <point x="1074" y="938"/>
      <point x="772" y="938" type="curve" smooth="yes"/>
      <point x="350" y="938"/>
      <point x="29" y="577"/>
    </contour>
    <contour>
      <point x="69" y="211" type="curve" smooth="yes"/>
      <point x="69" y="567"/>
      <point x="380" y="902"/>
      <point x="770" y="902" type="curve" smooth="yes"/>
      <point x="1050" y="902"/>
      <point x="1231" y="731"/>
      <point x="1231" y="455" type="curve" smooth="yes"/>
      <point x="1231" y="100"/>
      <point x="916" y="-235"/>
      <point x="526" y="-235" type="curve" smooth="yes"/>
      <point x="246" y="-235"/>
      <point x="69" y="-64"/>
    </contour>
  </outline>
</glyph>
<glyph name="W.ss04" format="2">
  <advance width="1266"/>
  <note>
W.ss04
</note>
  <outline>
    <contour>
      <point x="416" y="34" type="line"/>
      <point x="386" y="34" type="line"/>
      <point x="387" y="700" type="line"/>
      <point x="353" y="700" type="line"/>
      <point x="352" y="0" type="line"/>
      <point x="436" y="0" type="line"/>
      <point x="719" y="641" type="line"/>
      <point x="735" y="0" type="line"/>
      <point x="820" y="0" type="line"/>
      <point x="1116" y="700" type="line"/>
      <point x="1079" y="700" type="line"/>
      <point x="797" y="34" type="line"/>
      <point x="767" y="34" type="line"/>
      <point x="750" y="690" type="line"/>
      <point x="707" y="690" type="line"/>
    </contour>
    <contour>
      <point x="30" y="207" type="curve" smooth="yes"/>
      <point x="30" y="580"/>
      <point x="347" y="938"/>
      <point x="773" y="938" type="curve" smooth="yes"/>
      <point x="1078" y="938"/>
      <point x="1272" y="747"/>
      <point x="1272" y="459" type="curve" smooth="yes"/>
      <point x="1272" y="85"/>
      <point x="948" y="-271"/>
      <point x="526" y="-271" type="curve" smooth="yes"/>
      <point x="227" y="-271"/>
      <point x="30" y="-86"/>
    </contour>
  </outline>
</glyph>
<glyph name="Y.ss04" format="2">
  <advance width="1266"/>
  <note>
Y.ss04
</note>
  <outline>
    <contour>
      <point x="488" y="700" type="line"/>
      <point x="618" y="301" type="line"/>
      <point x="554" y="0" type="line"/>
      <point x="589" y="0" type="line"/>
      <point x="652" y="297" type="line"/>
      <point x="959" y="700" type="line"/>
      <point x="918" y="700" type="line"/>
      <point x="640" y="334" type="line"/>
      <point x="524" y="700" type="line"/>
    </contour>
    <contour>
      <point x="30" y="207" type="curve" smooth="yes"/>
      <point x="30" y="580"/>
      <point x="347" y="938"/>
      <point x="773" y="938" type="curve" smooth="yes"/>
      <point x="1078" y="938"/>
      <point x="1272" y="747"/>
      <point x="1272" y="459" type="curve" smooth="yes"/>
      <point x="1272" y="85"/>
      <point x="948" y="-271"/>
      <point x="526" y="-271" type="curve" smooth="yes"/>
      <point x="227" y="-271"/>
      <point x="30" y="-86"/>
    </contour>
  </outline>
</glyph>
<glyph name="Y.ss05" format="2">
  <advance width="1222"/>
  <note>
Y.ss05
</note>
  <outline>
    <contour>
      <point x="-78" y="-230" type="line"/>
      <point x="164" y="904" type="line"/>
      <point x="1298" y="904" type="line"/>
      <point x="1056" y="-230" type="line"/>
    </contour>
    <contour>
      <point x="192" y="870" type="line"/>
      <point x="-34" y="-196" type="line"/>
      <point x="1028" y="-196" type="line"/>
      <point x="1254" y="870" type="line"/>
    </contour>
    <contour>
      <point x="499" y="700" type="line"/>
      <point x="463" y="700" type="line"/>
      <point x="593" y="301" type="line"/>
      <point x="529" y="0" type="line"/>
      <point x="564" y="0" type="line"/>
      <point x="627" y="297" type="line"/>
      <point x="934" y="700" type="line"/>
      <point x="893" y="700" type="line"/>
      <point x="615" y="334" type="line"/>
    </contour>
  </outline>
</glyph>
<glyph name="Z.ss04" format="2">
  <advance width="1266"/>
  <note>
Z.ss04
</note>
  <outline>
    <contour>
      <point x="910" y="631" type="line"/>
      <point x="925" y="700" type="line"/>
      <point x="505" y="700" type="line"/>
      <point x="497" y="666" type="line"/>
      <point x="880" y="666" type="line"/>
      <point x="875" y="641" type="line"/>
      <point x="368" y="69" type="line"/>
      <point x="354" y="-1" type="line"/>
      <point x="791" y="-1" type="line"/>
      <point x="798" y="33" type="line"/>
      <point x="398" y="33" type="line"/>
      <point x="403" y="58" type="line"/>
    </contour>
    <contour>
      <point x="30" y="207" type="curve" smooth="yes"/>
      <point x="30" y="580"/>
      <point x="347" y="938"/>
      <point x="773" y="938" type="curve" smooth="yes"/>
      <point x="1078" y="938"/>
      <point x="1272" y="747"/>
      <point x="1272" y="459" type="curve" smooth="yes"/>
      <point x="1272" y="85"/>
      <point x="948" y="-271"/>
      <point x="526" y="-271" type="curve" smooth="yes"/>
      <point x="227" y="-271"/>
      <point x="30" y="-86"/>
    </contour>
  </outline>
</glyph>
<glyph name="Z.ss05" format="2">
  <advance width="1222"/>
  <note>
Z.ss05
</note>
  <outline>
    <contour>
      <point x="-78" y="-230" type="line"/>
      <point x="164" y="904" type="line"/>
      <point x="1298" y="904" type="line"/>
      <point x="1056" y="-230" type="line"/>
    </contour>
    <contour>
      <point x="192" y="870" type="line"/>
      <point x="-34" y="-196" type="line"/>
      <point x="1028" y="-196" type="line"/>
      <point x="1254" y="870" type="line"/>
    </contour>
    <contour>
      <point x="341" y="69" type="line"/>
      <point x="327" y="-1" type="line"/>
      <point x="764" y="-1" type="line"/>
      <point x="771" y="33" type="line"/>
      <point x="371" y="33" type="line"/>
      <point x="376" y="58" type="line"/>
      <point x="883" y="631" type="line"/>
      <point x="898" y="700" type="line"/>
      <point x="478" y="700" type="line"/>
      <point x="470" y="666" type="line"/>
      <point x="853" y="666" type="line"/>
      <point x="848" y="641" type="line"/>
    </contour>
  </outline>
</glyph>
<glyph name="eight.tosf" format="2">
  <advance width="560"/>
  <note>
eight.pnum
</note>
  <outline>
    <contour>
      <point x="233" y="-10" type="curve" smooth="yes"/>
      <point x="378" y="-10"/>
      <point x="457" y="54"/>
      <point x="457" y="155" type="curve" smooth="yes"/>
      <point x="457" y="224"/>
      <point x="407" y="242"/>
      <point x="362" y="263" type="curve"/>
      <point x="438" y="287"/>
      <point x="487" y="327"/>
      <point x="487" y="397" type="curve" smooth="yes"/>
      <point x="487" y="472"/>
      <point x="425" y="510"/>
      <point x="319" y="510" type="curve" smooth="yes"/>
      <point x="203" y="510"/>
      <point x="117" y="466"/>
      <point x="117" y="366" type="curve" smooth="yes"/>
      <point x="117" y="310"/>
      <point x="146" y="280"/>
      <point x="192" y="263" type="curve"/>
      <point x="101" y="235"/>
      <point x="54" y="182"/>
      <point x="54" y="117" type="curve" smooth="yes"/>
      <point x="54" y="28"/>
      <point x="129" y="-10"/>
    </contour>
    <contour>
      <point x="90" y="117" type="curve" smooth="yes"/>
      <point x="90" y="179"/>
      <point x="140" y="227"/>
      <point x="222" y="246" type="curve"/>
      <point x="324" y="246" type="line"/>
      <point x="376" y="233"/>
      <point x="421" y="214"/>
      <point x="421" y="152" type="curve" smooth="yes"/>
      <point x="421" y="63"/>
      <point x="346" y="22"/>
      <point x="235" y="22" type="curve" smooth="yes"/>
      <point x="156" y="22"/>
      <point x="90" y="47"/>
    </contour>
    <contour>
      <point x="152" y="368" type="curve" smooth="yes"/>
      <point x="152" y="449"/>
      <point x="219" y="478"/>
      <point x="318" y="478" type="curve" smooth="yes"/>
      <point x="404" y="478"/>
      <point x="452" y="455"/>
      <point x="452" y="392" type="curve" smooth="yes"/>
      <point x="452" y="328"/>
      <point x="409" y="299"/>
      <point x="331" y="278" type="curve"/>
      <point x="229" y="278" type="line"/>
      <point x="177" y="294"/>
      <point x="152" y="318"/>
    </contour>
  </outline>
</glyph>
<glyph name="five.ss03" format="2">
  <advance width="1265"/>
  <note>
five.ss03
</note>
  <outline>
    <contour>
      <point x="525" y="-271" type="curve" smooth="yes"/>
      <point x="943" y="-271"/>
      <point x="1271" y="87"/>
      <point x="1271" y="459" type="curve" smooth="yes"/>
      <point x="1271" y="745"/>
      <point x="1074" y="938"/>
      <point x="772" y="938" type="curve" smooth="yes"/>
      <point x="350" y="938"/>
      <point x="29" y="577"/>
      <point x="29" y="207" type="curve" smooth="yes"/>
      <point x="29" y="-82"/>
      <point x="228" y="-271"/>
    </contour>
    <contour>
      <point x="69" y="211" type="curve" smooth="yes"/>
      <point x="69" y="567"/>
      <point x="380" y="902"/>
      <point x="770" y="902" type="curve" smooth="yes"/>
      <point x="1050" y="902"/>
      <point x="1231" y="731"/>
      <point x="1231" y="455" type="curve" smooth="yes"/>
      <point x="1231" y="100"/>
      <point x="916" y="-235"/>
      <point x="526" y="-235" type="curve" smooth="yes"/>
      <point x="246" y="-235"/>
      <point x="69" y="-64"/>
    </contour>
    <contour>
      <point x="384" y="51" type="curve"/>
      <point x="372" y="19" type="line"/>
      <point x="372" y="19"/>
      <point x="482" y="-10"/>
      <point x="575" y="-10" type="curve" smooth="yes"/>
      <point x="766" y="-10"/>
      <point x="847" y="118"/>
      <point x="847" y="247" type="curve" smooth="yes"/>
      <point x="847" y="365"/>
      <point x="779" y="412"/>
      <point x="684" y="412" type="curve" smooth="yes"/>
      <point x="578" y="412"/>
      <point x="494" y="361"/>
      <point x="494" y="361" type="curve"/>
      <point x="574" y="626" type="line"/>
      <point x="907" y="626" type="line"/>
      <point x="914" y="660" type="line"/>
      <point x="551" y="660" type="line"/>
      <point x="451" y="327" type="line"/>
      <point x="485" y="323" type="line"/>
      <point x="485" y="323"/>
      <point x="573" y="378"/>
      <point x="676" y="378" type="curve" smooth="yes"/>
      <point x="747" y="378"/>
      <point x="808" y="346"/>
      <point x="808" y="242" type="curve" smooth="yes"/>
      <point x="808" y="134"/>
      <point x="739" y="24"/>
      <point x="581" y="24" type="curve" smooth="yes"/>
      <point x="498" y="24"/>
      <point x="384" y="51"/>
    </contour>
  </outline>
</glyph>
<glyph name="five.tosf" format="2">
  <advance width="560"/>
  <note>
five.pnum
</note>
  <outline>
    <contour>
      <point x="218" y="468" type="line"/>
      <point x="503" y="468" type="line"/>
      <point x="510" y="500" type="line"/>
      <point x="194" y="500" type="line"/>
      <point x="124" y="244" type="line"/>
      <point x="146" y="238" type="line"/>
      <point x="146" y="238"/>
      <point x="225" y="281"/>
      <point x="309" y="281" type="curve" smooth="yes"/>
      <point x="366" y="281"/>
      <point x="425" y="262"/>
      <point x="425" y="190" type="curve" smooth="yes"/>
      <point x="425" y="96"/>
      <point x="361" y="22"/>
      <point x="254" y="22" type="curve" smooth="yes"/>
      <point x="194" y="22"/>
      <point x="83" y="41"/>
      <point x="83" y="41" type="curve"/>
      <point x="73" y="9" type="line"/>
      <point x="73" y="9"/>
      <point x="182" y="-10"/>
      <point x="248" y="-10" type="curve" smooth="yes"/>
      <point x="383" y="-10"/>
      <point x="462" y="81"/>
      <point x="462" y="193" type="curve" smooth="yes"/>
      <point x="462" y="280"/>
      <point x="390" y="313"/>
      <point x="317" y="313" type="curve" smooth="yes"/>
      <point x="229" y="313"/>
      <point x="163" y="273"/>
      <point x="163" y="273" type="curve"/>
    </contour>
  </outline>
</glyph>
<glyph name="four.ss03" format="2">
  <advance width="1265"/>
  <note>
four.ss03
</note>
  <outline>
    <contour>
      <point x="525" y="-271" type="curve" smooth="yes"/>
      <point x="943" y="-271"/>
      <point x="1271" y="87"/>
      <point x="1271" y="459" type="curve" smooth="yes"/>
      <point x="1271" y="745"/>
      <point x="1074" y="938"/>
      <point x="772" y="938" type="curve" smooth="yes"/>
      <point x="350" y="938"/>
      <point x="29" y="577"/>
      <point x="29" y="207" type="curve" smooth="yes"/>
      <point x="29" y="-82"/>
      <point x="228" y="-271"/>
    </contour>
    <contour>
      <point x="69" y="211" type="curve" smooth="yes"/>
      <point x="69" y="567"/>
      <point x="380" y="902"/>
      <point x="770" y="902" type="curve" smooth="yes"/>
      <point x="1050" y="902"/>
      <point x="1231" y="731"/>
      <point x="1231" y="455" type="curve" smooth="yes"/>
      <point x="1231" y="100"/>
      <point x="916" y="-235"/>
      <point x="526" y="-235" type="curve" smooth="yes"/>
      <point x="246" y="-235"/>
      <point x="69" y="-64"/>
    </contour>
    <contour>
      <point x="365" y="172" type="line"/>
      <point x="359" y="142" type="line"/>
      <point x="681" y="142" type="line"/>
      <point x="651" y="0" type="line"/>
      <point x="686" y="0" type="line"/>
      <point x="716" y="142" type="line"/>
      <point x="818" y="142" type="line"/>
      <point x="825" y="174" type="line"/>
      <point x="723" y="174" type="line"/>
      <point x="770" y="395" type="line"/>
      <point x="735" y="395" type="line"/>
      <point x="688" y="174" type="line"/>
      <point x="405" y="174" type="line"/>
      <point x="744" y="660" type="line"/>
      <point x="702" y="660" type="line"/>
    </contour>
  </outline>
</glyph>
<glyph name="four.tosf" format="2">
  <advance width="560"/>
  <note>
four.pnum
</note>
  <outline>
    <contour>
      <point x="85" y="162" type="line"/>
      <point x="79" y="131" type="line"/>
      <point x="370" y="131" type="line"/>
      <point x="342" y="0" type="line"/>
      <point x="377" y="0" type="line"/>
      <point x="405" y="131" type="line"/>
      <point x="466" y="131" type="line"/>
      <point x="472" y="163" type="line"/>
      <point x="411" y="163" type="line"/>
      <point x="454" y="363" type="line"/>
      <point x="419" y="363" type="line"/>
      <point x="376" y="163" type="line"/>
      <point x="124" y="163" type="line"/>
      <point x="379" y="500" type="line"/>
      <point x="343" y="500" type="line"/>
    </contour>
  </outline>
</glyph>
<glyph name="guilsinglleft.case" format="2">
  <advance width="321"/>
  <note>
guilsinglleft.case
</note>
  <outline>
    <contour>
      <point x="220" y="197" type="line"/>
      <point x="244" y="219" type="line"/>
      <point x="109" y="366" type="line"/>
      <point x="306" y="498" type="line"/>
      <point x="289" y="525" type="line"/>
      <point x="81" y="386" type="line"/>
      <point x="74" y="356" type="line"/>
    </contour>
  </outline>
</glyph>
<glyph name="nine.tosf" format="2">
  <advance width="560"/>
  <note>
nine.pnum
</note>
  <outline>
    <contour>
      <point x="107" y="37" type="curve"/>
      <point x="97" y="6" type="line"/>
      <point x="97" y="6"/>
      <point x="167" y="-10"/>
      <point x="227" y="-10" type="curve" smooth="yes"/>
      <point x="422" y="-10"/>
      <point x="490" y="165"/>
      <point x="490" y="326" type="curve" smooth="yes"/>
      <point x="490" y="426"/>
      <point x="449" y="510"/>
      <point x="323" y="510" type="curve" smooth="yes"/>
      <point x="182" y="510"/>
      <point x="125" y="404"/>
      <point x="125" y="308" type="curve" smooth="yes"/>
      <point x="125" y="221"/>
      <point x="178" y="187"/>
      <point x="260" y="187" type="curve" smooth="yes"/>
      <point x="328" y="187"/>
      <point x="393" y="210"/>
      <point x="445" y="231" type="curve"/>
      <point x="408" y="72"/>
      <point x="337" y="22"/>
      <point x="231" y="22" type="curve" smooth="yes"/>
      <point x="174" y="22"/>
      <point x="107" y="37"/>
    </contour>
    <contour>
      <point x="160" y="306" type="curve" smooth="yes"/>
      <point x="160" y="384"/>
      <point x="204" y="479"/>
      <point x="324" y="479" type="curve" smooth="yes"/>
      <point x="453" y="479"/>
      <point x="470" y="371"/>
      <point x="450" y="262" type="curve"/>
      <point x="450" y="262"/>
      <point x="358" y="218"/>
      <point x="264" y="218" type="curve" smooth="yes"/>
      <point x="200" y="218"/>
      <point x="160" y="239"/>
    </contour>
  </outline>
</glyph>
<glyph name="one.ss04" format="2">
  <advance width="1265"/>
  <note>
one.ss04
</note>
  <outline>
    <contour>
      <point x="525" y="-271" type="curve" smooth="yes"/>
      <point x="228" y="-271"/>
      <point x="29" y="-82"/>
      <point x="29" y="207" type="curve" smooth="yes"/>
      <point x="29" y="577"/>
      <point x="350" y="938"/>
      <point x="772" y="938" type="curve" smooth="yes"/>
      <point x="1074" y="938"/>
      <point x="1271" y="745"/>
      <point x="1271" y="459" type="curve" smooth="yes"/>
      <point x="1271" y="87"/>
      <point x="943" y="-271"/>
    </contour>
    <contour>
      <point x="716" y="660" type="line"/>
      <point x="483" y="524" type="line"/>
      <point x="496" y="493" type="line"/>
      <point x="707" y="617" type="line"/>
      <point x="576" y="0" type="line"/>
      <point x="611" y="0" type="line"/>
      <point x="751" y="660" type="line"/>
    </contour>
  </outline>
</glyph>
<glyph name="one.ss05" format="2">
  <advance width="1183"/>
  <note>
one.ss05
</note>
  <outline>
    <contour>
      <point x="-78" y="-230" type="line"/>
      <point x="164" y="904" type="line"/>
      <point x="1298" y="904" type="line"/>
      <point x="1056" y="-230" type="line"/>
    </contour>
    <contour>
      <point x="192" y="870" type="line"/>
      <point x="-34" y="-196" type="line"/>
      <point x="1028" y="-196" type="line"/>
      <point x="1254" y="870" type="line"/>
    </contour>
    <contour>
      <point x="700" y="660" type="line"/>
      <point x="467" y="524" type="line"/>
      <point x="480" y="493" type="line"/>
      <point x="691" y="617" type="line"/>
      <point x="560" y="0" type="line"/>
      <point x="595" y="0" type="line"/>
      <point x="735" y="660" type="line"/>
    </contour>
  </outline>
</glyph>
<glyph name="one.ss06" format="2">
  <advance width="1183"/>
  <note>
one.ss06
</note>
  <outline>
    <contour>
      <point x="-78" y="-230" type="line"/>
      <point x="164" y="904" type="line"/>
      <point x="1298" y="904" type="line"/>
      <point x="1056" y="-230" type="line"/>
    </contour>
    <contour>
      <point x="700" y="660" type="line"/>
      <point x="467" y="524" type="line"/>
      <point x="480" y="493" type="line"/>
      <point x="691" y="617" type="line"/>
      <point x="560" y="0" type="line"/>
      <point x="595" y="0" type="line"/>
      <point x="735" y="660" type="line"/>
    </contour>
  </outline>
</glyph>
<glyph name="one.tf" format="2">
  <advance width="560"/>
  <note>
one.tf
</note>
  <outline>
    <contour>
      <point x="358" y="617" type="line"/>
      <point x="227" y="0" type="line"/>
      <point x="262" y="0" type="line"/>
      <point x="402" y="660" type="line"/>
      <point x="367" y="660" type="line"/>
      <point x="134" y="524" type="line"/>
      <point x="147" y="493" type="line"/>
    </contour>
  </outline>
</glyph>
<glyph name="one.tosf" format="2">
  <advance width="560"/>
  <note>
one.pnum
</note>
  <outline>
    <contour>
      <point x="289" y="0" type="line"/>
      <point x="395" y="500" type="line"/>
      <point x="360" y="500" type="line"/>
      <point x="164" y="391" type="line"/>
      <point x="175" y="363" type="line"/>
      <point x="352" y="462" type="line"/>
      <point x="254" y="0" type="line"/>
    </contour>
  </outline>
</glyph>
<glyph name="seven.ss03" format="2">
  <advance width="1265"/>
  <note>
seven.ss03
</note>
  <outline>
    <contour>
      <point x="525" y="-271" type="curve" smooth="yes"/>
      <point x="943" y="-271"/>
      <point x="1271" y="87"/>
      <point x="1271" y="459" type="curve" smooth="yes"/>
      <point x="1271" y="745"/>
      <point x="1074" y="938"/>
      <point x="772" y="938" type="curve" smooth="yes"/>
      <point x="350" y="938"/>
      <point x="29" y="577"/>
      <point x="29" y="207" type="curve" smooth="yes"/>
      <point x="29" y="-82"/>
      <point x="228" y="-271"/>
    </contour>
    <contour>
      <point x="69" y="211" type="curve" smooth="yes"/>
      <point x="69" y="567"/>
      <point x="380" y="902"/>
      <point x="770" y="902" type="curve" smooth="yes"/>
      <point x="1050" y="902"/>
      <point x="1231" y="731"/>
      <point x="1231" y="455" type="curve" smooth="yes"/>
      <point x="1231" y="100"/>
      <point x="916" y="-235"/>
      <point x="526" y="-235" type="curve" smooth="yes"/>
      <point x="246" y="-235"/>
      <point x="69" y="-64"/>
    </contour>
    <contour>
      <point x="863" y="601" type="line"/>
      <point x="474" y="10" type="line"/>
      <point x="502" y="-9" type="line"/>
      <point x="899" y="597" type="line"/>
      <point x="912" y="660" type="line"/>
      <point x="522" y="660" type="line"/>
      <point x="515" y="626" type="line"/>
      <point x="869" y="626" type="line"/>
    </contour>
  </outline>
</glyph>
<glyph name="seven.ss05" format="2">
  <advance width="1183"/>
  <note>
seven.ss05
</note>
  <outline>
    <contour>
      <point x="-78" y="-230" type="line"/>
      <point x="164" y="904" type="line"/>
      <point x="1298" y="904" type="line"/>
      <point x="1056" y="-230" type="line"/>
    </contour>
    <contour>
      <point x="192" y="870" type="line"/>
      <point x="-34" y="-196" type="line"/>
      <point x="1028" y="-196" type="line"/>
      <point x="1254" y="870" type="line"/>
    </contour>
    <contour>
      <point x="811" y="601" type="line"/>
      <point x="422" y="10" type="line"/>
      <point x="450" y="-9" type="line"/>
      <point x="847" y="597" type="line"/>
      <point x="860" y="660" type="line"/>
      <point x="470" y="660" type="line"/>
      <point x="463" y="626" type="line"/>
      <point x="817" y="626" type="line"/>
    </contour>
  </outline>
</glyph>
<glyph name="seven.tosf" format="2">
  <advance width="560"/>
  <note>
seven.pnum
</note>
  <outline>
    <contour>
      <point x="472" y="447" type="line"/>
      <point x="483" y="500" type="line"/>
      <point x="156" y="500" type="line"/>
      <point x="149" y="468" type="line"/>
      <point x="441" y="468" type="line"/>
      <point x="437" y="450" type="line"/>
      <point x="120" y="1" type="line"/>
      <point x="148" y="-14" type="line"/>
    </contour>
  </outline>
</glyph>
<glyph name="six.tosf" format="2">
  <advance width="560"/>
  <note>
six.pnum
</note>
  <outline>
    <contour>
      <point x="493" y="463" type="curve"/>
      <point x="503" y="494" type="line"/>
      <point x="503" y="494"/>
      <point x="433" y="510"/>
      <point x="373" y="510" type="curve" smooth="yes"/>
      <point x="170" y="510"/>
      <point x="100" y="315"/>
      <point x="100" y="174" type="curve" smooth="yes"/>
      <point x="100" y="74"/>
      <point x="141" y="-10"/>
      <point x="267" y="-10" type="curve" smooth="yes"/>
      <point x="408" y="-10"/>
      <point x="465" y="96"/>
      <point x="465" y="192" type="curve" smooth="yes"/>
      <point x="465" y="279"/>
      <point x="412" y="313"/>
      <point x="330" y="313" type="curve" smooth="yes"/>
      <point x="262" y="313"/>
      <point x="197" y="290"/>
      <point x="145" y="269" type="curve"/>
      <point x="182" y="428"/>
      <point x="263" y="478"/>
      <point x="369" y="478" type="curve" smooth="yes"/>
      <point x="426" y="478"/>
      <point x="493" y="463"/>
    </contour>
    <contour>
      <point x="140" y="238" type="curve"/>
      <point x="140" y="238"/>
      <point x="232" y="282"/>
      <point x="326" y="282" type="curve" smooth="yes"/>
      <point x="390" y="282"/>
      <point x="430" y="261"/>
      <point x="430" y="194" type="curve" smooth="yes"/>
      <point x="430" y="116"/>
      <point x="386" y="21"/>
      <point x="266" y="21" type="curve" smooth="yes"/>
      <point x="137" y="21"/>
      <point x="120" y="129"/>
    </contour>
  </outline>
</glyph>
<glyph name="three.tosf" format="2">
  <advance width="560"/>
  <note>
three.pnum
</note>
  <outline>
    <contour>
      <point x="146" y="492" type="curve"/>
      <point x="143" y="460" type="line"/>
      <point x="143" y="460"/>
      <point x="240" y="478"/>
      <point x="318" y="478" type="curve" smooth="yes"/>
      <point x="395" y="478"/>
      <point x="436" y="456"/>
      <point x="436" y="400" type="curve" smooth="yes"/>
      <point x="436" y="335"/>
      <point x="371" y="286"/>
      <point x="286" y="282" type="curve"/>
      <point x="165" y="282" type="line"/>
      <point x="158" y="250" type="line"/>
      <point x="280" y="250" type="line"/>
      <point x="337" y="246"/>
      <point x="397" y="231"/>
      <point x="397" y="165" type="curve" smooth="yes"/>
      <point x="397" y="72"/>
      <point x="326" y="23"/>
      <point x="218" y="22" type="curve" smooth="yes"/>
      <point x="143" y="22"/>
      <point x="48" y="41"/>
      <point x="48" y="41" type="curve"/>
      <point x="37" y="9" type="line"/>
      <point x="37" y="9"/>
      <point x="135" y="-10"/>
      <point x="212" y="-10" type="curve" smooth="yes"/>
      <point x="344" y="-10"/>
      <point x="433" y="48"/>
      <point x="433" y="167" type="curve" smooth="yes"/>
      <point x="433" y="228"/>
      <point x="391" y="254"/>
      <point x="346" y="268" type="curve"/>
      <point x="364" y="268"/>
      <point x="471" y="305"/>
      <point x="471" y="401" type="curve" smooth="yes"/>
      <point x="471" y="475"/>
      <point x="417" y="510"/>
      <point x="324" y="510" type="curve" smooth="yes"/>
      <point x="246" y="510"/>
      <point x="146" y="492"/>
    </contour>
  </outline>
</glyph>
<glyph name="two.ss03" format="2">
  <advance width="1265"/>
  <note>
two.ss03
</note>
  <outline>
    <contour>
      <point x="525" y="-271" type="curve" smooth="yes"/>
      <point x="943" y="-271"/>
      <point x="1271" y="87"/>
      <point x="1271" y="459" type="curve" smooth="yes"/>
      <point x="1271" y="745"/>
      <point x="1074" y="938"/>
      <point x="772" y="938" type="curve" smooth="yes"/>
      <point x="350" y="938"/>
      <point x="29" y="577"/>
      <point x="29" y="207" type="curve" smooth="yes"/>
      <point x="29" y="-82"/>
      <point x="228" y="-271"/>
    </contour>
    <contour>
      <point x="69" y="211" type="curve" smooth="yes"/>
      <point x="69" y="567"/>
      <point x="380" y="902"/>
      <point x="770" y="902" type="curve" smooth="yes"/>
      <point x="1050" y="902"/>
      <point x="1231" y="731"/>
      <point x="1231" y="455" type="curve" smooth="yes"/>
      <point x="1231" y="100"/>
      <point x="916" y="-235"/>
      <point x="526" y="-235" type="curve" smooth="yes"/>
      <point x="246" y="-235"/>
      <point x="69" y="-64"/>
    </contour>
    <contour>
      <point x="358" y="31" type="line"/>
      <point x="352" y="0" type="line"/>
      <point x="780" y="0" type="line"/>
      <point x="787" y="32" type="line"/>
      <point x="407" y="32" type="line"/>
      <point x="646" y="233" type="line" smooth="yes"/>
      <point x="787" y="352"/>
      <point x="864" y="411"/>
      <point x="864" y="532" type="curve" smooth="yes"/>
      <point x="864" y="618"/>
      <point x="800" y="670"/>
      <point x="676" y="670" type="curve" smooth="yes"/>
      <point x="607" y="670"/>
      <point x="504" y="643"/>
      <point x="504" y="643" type="curve"/>
      <point x="502" y="609" type="line"/>
      <point x="502" y="609"/>
      <point x="598" y="636"/>
      <point x="673" y="636" type="curve" smooth="yes"/>
      <point x="784" y="636"/>
      <point x="828" y="600"/>
      <point x="828" y="530" type="curve" smooth="yes"/>
      <point x="828" y="421"/>
      <point x="745" y="361"/>
      <point x="623" y="257" type="curve" smooth="yes"/>
    </contour>
  </outline>
</glyph>
<glyph name="two.ss05" format="2">
  <advance width="1183"/>
  <note>
two.ss05
</note>
  <outline>
    <contour>
      <point x="-78" y="-230" type="line"/>
      <point x="164" y="904" type="line"/>
      <point x="1298" y="904" type="line"/>
      <point x="1056" y="-230" type="line"/>
    </contour>
    <contour>
      <point x="192" y="870" type="line"/>
      <point x="-34" y="-196" type="line"/>
      <point x="1028" y="-196" type="line"/>
      <point x="1254" y="870" type="line"/>
    </contour>
    <contour>
      <point x="331" y="31" type="line"/>
      <point x="325" y="0" type="line"/>
      <point x="753" y="0" type="line"/>
      <point x="760" y="32" type="line"/>
      <point x="380" y="32" type="line"/>
      <point x="619" y="233" type="line" smooth="yes"/>
      <point x="760" y="352"/>
      <point x="837" y="411"/>
      <point x="837" y="532" type="curve" smooth="yes"/>
      <point x="837" y="618"/>
      <point x="773" y="670"/>
      <point x="649" y="670" type="curve" smooth="yes"/>
      <point x="580" y="670"/>
      <point x="477" y="643"/>
      <point x="477" y="643" type="curve"/>
      <point x="475" y="609" type="line"/>
      <point x="475" y="609"/>
      <point x="571" y="636"/>
      <point x="646" y="636" type="curve" smooth="yes"/>
      <point x="757" y="636"/>
      <point x="801" y="600"/>
      <point x="801" y="530" type="curve" smooth="yes"/>
      <point x="801" y="421"/>
      <point x="718" y="361"/>
      <point x="596" y="257" type="curve" smooth="yes"/>
    </contour>
  </outline>
</glyph>
<glyph name="two.tosf" format="2">
  <advance width="560"/>
  <note>
two.pnum
</note>
  <outline>
    <contour>
      <point x="305" y="207" type="curve" smooth="yes"/>
      <point x="67" y="32" type="line"/>
      <point x="60" y="0" type="line"/>
      <point x="411" y="0" type="line"/>
      <point x="418" y="32" type="line"/>
      <point x="113" y="32" type="line"/>
      <point x="322" y="185" type="line" smooth="yes"/>
      <point x="408" y="248"/>
      <point x="478" y="305"/>
      <point x="478" y="404" type="curve" smooth="yes"/>
      <point x="478" y="472"/>
      <point x="429" y="510"/>
      <point x="338" y="510" type="curve" smooth="yes"/>
      <point x="264" y="510"/>
      <point x="163" y="488"/>
      <point x="163" y="488" type="curve"/>
      <point x="160" y="457" type="line"/>
      <point x="160" y="457"/>
      <point x="262" y="478"/>
      <point x="331" y="478" type="curve" smooth="yes"/>
      <point x="401" y="478"/>
      <point x="442" y="455"/>
      <point x="442" y="402" type="curve" smooth="yes"/>
      <point x="442" y="320"/>
      <point x="376" y="259"/>
    </contour>
  </outline>
</glyph>
<glyph name="uni013C.ss02" format="2">
  <advance width="196"/>
  <note>
uni013C.ss02
</note>
  <outline>
    <contour>
      <point x="182" y="730" type="line"/>
      <point x="28" y="0" type="line"/>
      <point x="63" y="0" type="line"/>
      <point x="217" y="730" type="line"/>
    </contour>
    <contour>
      <point x="38" y="-99" type="line"/>
      <point x="-45" y="-236" type="line"/>
      <point x="-24" y="-251" type="line"/>
      <point x="67" y="-121" type="line"/>
    </contour>
  </outline>
</glyph>
<glyph name="uni0304.case" format="2">
  <advance width="0"/>
  <note>
uni0304.case
</note>
  <outline>
    <contour>
      <point x="389" y="822" type="line"/>
      <point x="395" y="854" type="line"/>
      <point x="128" y="854" type="line"/>
      <point x="122" y="822" type="line"/>
    </contour>
  </outline>
</glyph>
<glyph name="uni0307.case" format="2">
  <advance width="0"/>
  <note>
uni0307.case
</note>
  <outline>
    <contour>
      <point x="165" y="822" type="line"/>
      <point x="177" y="883" type="line"/>
      <point x="135" y="883" type="line"/>
      <point x="123" y="822" type="line"/>
    </contour>
  </outline>
</glyph>
<glyph name="uni0308.case" format="2">
  <advance width="0"/>
  <note>
uni0308.case
</note>
  <outline>
    <contour>
      <point x="162" y="822" type="line"/>
      <point x="174" y="880" type="line"/>
      <point x="134" y="880" type="line"/>
      <point x="122" y="822" type="line"/>
    </contour>
    <contour>
      <point x="319" y="880" type="line"/>
      <point x="307" y="822" type="line"/>
      <point x="347" y="822" type="line"/>
      <point x="359" y="880" type="line"/>
    </contour>
  </outline>
</glyph>
<glyph name="uni030C.case" format="2">
  <advance width="0"/>
  <note>
uni030C.case
</note>
  <outline>
    <contour>
      <point x="412" y="908" type="line"/>
      <point x="365" y="908" type="line"/>
      <point x="254" y="823" type="line"/>
      <point x="179" y="908" type="line"/>
      <point x="140" y="908" type="line"/>
      <point x="235" y="793" type="line"/>
      <point x="269" y="793" type="line"/>
    </contour>
  </outline>
</glyph>
<glyph name="uni0312.case" format="2">
  <advance width="0"/>
  <note>
uni0312.case
</note>
  <outline>
    <contour>
      <point x="248" y="912" type="line"/>
      <point x="119" y="810" type="line"/>
      <point x="137" y="789" type="line"/>
      <point x="261" y="897" type="line"/>
    </contour>
  </outline>
</glyph>
<glyph name="uni0313.case" format="2">
  <advance width="0"/>
  <note>
uni0313.case
</note>
  <outline>
    <contour>
      <point x="134" y="789" type="line"/>
      <point x="242" y="891" type="line"/>
      <point x="219" y="912" type="line"/>
      <point x="118" y="804" type="line"/>
    </contour>
  </outline>
</glyph>
<glyph name="uni0335.case" format="2">
  <advance width="0"/>
  <note>
uni0335.case
</note>
  <outline>
    <contour>
      <point x="323" y="338" type="line"/>
      <point x="331" y="372" type="line"/>
      <point x="4" y="372" type="line"/>
      <point x="-4" y="338" type="line"/>
    </contour>
  </outline>
</glyph>
<glyph name="uni1E37.ss02" format="2">
  <advance width="196"/>
  <note>
uni1E37.ss02
</note>
  <outline>
    <contour>
      <point x="182" y="730" type="line"/>
      <point x="28" y="0" type="line"/>
      <point x="63" y="0" type="line"/>
      <point x="217" y="730" type="line"/>
    </contour>
    <contour>
      <point x="10" y="-104" type="line"/>
      <point x="-2" y="-165" type="line"/>
      <point x="40" y="-165" type="line"/>
      <point x="52" y="-104" type="line"/>
    </contour>
  </outline>
</glyph>
<glyph name="zero.ss05" format="2">
  <advance width="1183"/>
  <note>
zero.ss05
</note>
  <outline>
    <contour>
      <point x="-78" y="-230" type="line"/>
      <point x="164" y="904" type="line"/>
      <point x="1298" y="904" type="line"/>
      <point x="1056" y="-230" type="line"/>
    </contour>
    <contour>
      <point x="192" y="870" type="line"/>
      <point x="-34" y="-196" type="line"/>
      <point x="1028" y="-196" type="line"/>
      <point x="1254" y="870" type="line"/>
    </contour>
    <contour>
      <point x="358" y="189" type="curve" smooth="yes"/>
      <point x="358" y="33"/>
      <point x="428" y="-10"/>
      <point x="540" y="-10" type="curve" smooth="yes"/>
      <point x="773" y="-10"/>
      <point x="858" y="287"/>
      <point x="858" y="461" type="curve" smooth="yes"/>
      <point x="858" y="620"/>
      <point x="788" y="670"/>
      <point x="678" y="670" type="curve" smooth="yes"/>
      <point x="440" y="670"/>
      <point x="358" y="366"/>
    </contour>
    <contour>
      <point x="395" y="185" type="curve" smooth="yes"/>
      <point x="395" y="330"/>
      <point x="458" y="636"/>
      <point x="674" y="636" type="curve" smooth="yes"/>
      <point x="768" y="636"/>
      <point x="821" y="601"/>
      <point x="821" y="465" type="curve" smooth="yes"/>
      <point x="821" y="315"/>
      <point x="748" y="24"/>
      <point x="544" y="24" type="curve" smooth="yes"/>
      <point x="454" y="24"/>
      <point x="395" y="49"/>
    </contour>
  </outline>
</glyph>
<glyph name="zero.tosf" format="2">
  <advance width="560"/>
  <note>
zero.pnum
</note>
  <outline>
    <contour>
      <point x="330" y="510" type="curve" smooth="yes"/>
      <point x="116" y="510"/>
      <point x="64" y="272"/>
      <point x="64" y="148" type="curve" smooth="yes"/>
      <point x="64" y="33"/>
      <point x="131" y="-10"/>
      <point x="230" y="-10" type="curve" smooth="yes"/>
      <point x="443" y="-10"/>
      <point x="495" y="224"/>
      <point x="495" y="349" type="curve" smooth="yes"/>
      <point x="495" y="459"/>
      <point x="435" y="510"/>
    </contour>
    <contour>
      <point x="99" y="148" type="curve" smooth="yes"/>
      <point x="99" y="239"/>
      <point x="131" y="478"/>
      <point x="328" y="478" type="curve" smooth="yes"/>
      <point x="413" y="478"/>
      <point x="460" y="443"/>
      <point x="460" y="348" type="curve" smooth="yes"/>
      <point x="460" y="234"/>
      <point x="412" y="22"/>
      <point x="231" y="22" type="curve" smooth="yes"/>
      <point x="146" y="22"/>
      <point x="99" y="54"/>
    </contour>
  </outline>
</glyph>
